<?xml version="1.0" encoding="utf-8"?>
<!-- Generator: Adobe Illustrator 19.0.0, SVG Export Plug-In . SVG Version: 6.00 Build 0)  -->
<svg version="1.1" id="Layer_1" xmlns="http://www.w3.org/2000/svg" xmlns:xlink="http://www.w3.org/1999/xlink" x="0px" y="0px"
	 viewBox="-64 -225 830 960" style="enable-background:new -64 -225 830 960;" xml:space="preserve">
<style type="text/css">
	.st0{fill:#75675A;stroke:#75675A;stroke-width:3;stroke-miterlimit:10;}
	.st1{fill:#75675A;}
	.st2{fill:#FFFFFF;stroke:#DFE8EA;stroke-width:3;stroke-miterlimit:10;}
	.st3{fill:#DFE8EA;}
	.st4{fill:none;stroke:#BCBCBC;stroke-width:4;stroke-miterlimit:10;}
	.st5{fill:#A7C9EA;stroke:#A7C9EA;stroke-width:3;stroke-miterlimit:10;}
	.st6{fill:#9CBFD8;stroke:#9CBFD8;stroke-width:3;stroke-miterlimit:10;}
	.st7{fill:#E3F2FF;}
	.st8{fill:#85ACDD;stroke:#85ACDD;stroke-miterlimit:10;}
	.st9{fill:#878D8E;stroke:#878D8E;stroke-width:4;stroke-miterlimit:10;}
	.st10{fill:none;stroke:#6C90E0;stroke-width:3;stroke-miterlimit:10;}
	.st11{fill:#BCBCBC;}
	.st12{fill:#AAB4B5;}
	.st13{fill:#BCCBCC;stroke:#AAB4B5;stroke-width:2;stroke-miterlimit:10;}
	.st14{fill:#FEE0C4;stroke:#FEE0C4;stroke-width:3;stroke-miterlimit:10;}
	.st15{fill:#F9C5A6;stroke:#F9C5A6;stroke-width:2;stroke-miterlimit:10;}
	.st16{fill:#F9C5A6;}
	.st17{display:none;fill:#F9C5A6;}
	.st18{opacity:0.18;fill:#F9ACB9;enable-background:new    ;}
	.st19{opacity:0.25;fill:#E8A6B9;enable-background:new    ;}
	.st20{fill:#FCC7AC;}
	.st21{fill:#D07E9A;}
	.st22{fill:#DF9DB3;}
	.st23{fill:#E089AA;}
	.st24{fill:#DF9DB3;stroke:#DF9DB3;stroke-miterlimit:10;}
	.st25{fill:#E089AA;stroke:#E089AA;stroke-miterlimit:10;}
	.st26{fill:#9B5D75;}
	.st27{fill:none;stroke:#75675A;stroke-miterlimit:10;}
	.st28{fill:#D1A490;}
	.st29{fill:none;stroke:#D1A490;stroke-miterlimit:10;}
	.st30{display:none;fill:#1C3863;stroke:#1C3863;stroke-width:3;stroke-miterlimit:10;}
	.st31{display:none;fill:#152844;}
	.st32{fill:#FFFFFF;stroke:#BCBCBC;stroke-width:2.5;stroke-miterlimit:10;}
	.st33{fill:#493C33;}
	.st34{fill:#E59993;}
	.st35{fill:#E5897F;}
	.st36{fill:#75675A;stroke:#75675A;stroke-width:1.5;stroke-miterlimit:10;}
	.st37{fill:#CC9A87;}
	.st38{fill:#FFFFFF;stroke:#FFFFFF;stroke-width:3;stroke-miterlimit:10;}
	.st39{opacity:0.47;fill:#DFE8EA;stroke:#DFE8EA;stroke-miterlimit:10;enable-background:new    ;}
</style>
<g id="Layer_61">
</g>
<g id="hair">
	<path id="XMLID_7_" class="st0" d="M481.3,199c3.6-17.5,1.7-34.7,1.7-34.7c-0.3-2.3-0.9-5.9-1.8-10.2c-2.5-11.9-5.6-20.6-6.7-23.6
		c-14.3-39.6-21.5-59.4-22.5-77c-1-18.1,4-13.7,5.5-41c1.2-21.3,2.7-51-14-78.5c-5.4-8.9-17.5-28.7-33.2-30.7
		c-2.6-0.3-8.4-0.5-15.3-3.8c-7.5-3.6-11.8-8.7-13-10c-11.3-11.9-59.7-10-97.5,15c-36.2,24-49.6,60.3-53.2,71.5
		C225.7-6.4,219,27.4,223,61.3c0.9,7.6,3,20.8-0.7,37.7c-2.9,13.4-8.4,24.4-12.3,32c-8.9,17.4-13.6,20.1-18,29.3
		c-10.3,21.7-2.4,45.9,1,56.2c18.3,56.1,135.3,106.6,217,65.5C456.5,258.6,478.8,211.2,481.3,199z"/>
</g>
<g id="hair_deets">
	<g id="XMLID_563_">
		<path id="XMLID_163_" class="st1" d="M309-104c0,0-0.3,0.1-0.9,0.3c-0.6,0.2-1.5,0.5-2.7,0.9c-2.3,0.8-5.8,2.1-10,3.9
			s-9.3,4.3-14.8,7.6s-11.5,7.4-17.5,12.6c-1.5,1.3-3,2.7-4.5,4c-1.5,1.4-2.9,2.9-4.4,4.4c-1.4,1.6-2.9,3.2-4.3,4.8
			c-1.4,1.7-2.8,3.4-4.2,5.2c-5.5,7.2-10.4,15.4-14.5,24.4S224-17.2,222.1-7c-1,5.1-1.7,10.3-2,15.5s-0.2,10.4,0.6,15.6
			c0.8,5.2,2.3,10.2,3.5,15.4c1.3,5.2,2,10.5,2.2,15.7c0.2,5.3-0.4,10.5-1,15.6s-1.6,10.1-2.9,14.9c-2.4,9.7-5.5,18.8-8.6,27.3
			c-3.1,8.6-6.3,16.6-9.3,23.9s-5.9,14-7.1,20.3c-0.6,3.1-0.8,6.1-0.9,8.9s0.1,5.3,0.3,7.6c0.5,4.6,1.3,8.2,1.9,10.5
			c0.6,2.4,1,3.7,1,3.7s-0.5-1.2-1.1-3.6c-0.7-2.4-1.6-5.9-2.2-10.5c-0.5-4.6-0.8-10.3,0.2-16.7c1.1-6.4,3.9-13.3,6.8-20.6
			c2.9-7.4,6-15.4,9-24s5.9-17.7,8.3-27.3c1.2-4.8,2.2-9.7,2.8-14.7c0.6-5.1,1.1-10.2,0.9-15.3c-0.2-5.1-0.9-10.3-2.2-15.3
			c-1.2-5.1-2.8-10.2-3.6-15.5c-0.8-5.3-0.9-10.7-0.6-16c0.4-5.3,1.1-10.5,2.1-15.7c2-10.3,5.2-20.2,9.4-29.3
			c4.2-9.1,9.2-17.3,14.9-24.6c1.4-1.8,2.9-3.5,4.3-5.2c1.5-1.7,3-3.2,4.5-4.8c1.5-1.5,3-3,4.5-4.4c1.6-1.4,3-2.8,4.6-4
			c6.1-5.1,12.2-9.2,17.8-12.4c5.6-3.2,10.7-5.6,15-7.3c4.3-1.8,7.8-2.9,10.1-3.6c1.2-0.4,2.1-0.6,2.7-0.8
			C308.7-103.9,309-104,309-104z"/>
	</g>
	<g id="XMLID_560_">
		<path id="XMLID_149_" class="st1" d="M451.5,27c0,0,0,0.6,0,1.7c0,1.1,0.1,2.7,0.2,4.7c0.2,4,0.6,9.8,1.6,16.6
			c0.5,3.4,1.1,7.1,2,10.9c0.9,3.9,1.9,7.9,3.2,12s2.8,8.3,4.5,12.5s3.7,8.3,5.7,12.5s4,8.3,5.8,12.5s3.3,8.5,4.4,12.7
			c0.3,1.1,0.5,2.1,0.8,3.1s0.4,2.1,0.6,3.1c0.2,1,0.4,2.1,0.5,3.1c0.2,1,0.3,2,0.4,3c0.5,4,0.8,7.7,0.8,11.2
			c0.2,6.9-0.5,12.7-1,16.7c-0.3,2-0.6,3.6-0.8,4.6c-0.2,1.1-0.3,1.6-0.3,1.6s0.1-0.6,0.2-1.6c0.1-1.1,0.3-2.6,0.5-4.6
			c0.4-4,0.7-9.8,0.5-16.7c-0.2-3.4-0.5-7.2-1.1-11.1c-0.1-1-0.3-2-0.5-3s-0.4-2-0.6-3c-0.2-1-0.4-2-0.7-3.1c-0.3-1-0.5-2.1-0.8-3.1
			c-1.2-4.1-2.6-8.3-4.4-12.5c-1.8-4.2-3.8-8.3-5.8-12.4c-2-4.2-3.9-8.4-5.6-12.6c-1.7-4.2-3.2-8.5-4.4-12.6
			c-2.5-8.3-3.9-16.3-4.8-23.2c-0.4-3.4-0.7-6.6-0.8-9.4c-0.2-2.8-0.2-5.3-0.2-7.3s0-3.6,0-4.7C451.5,27.6,451.5,27,451.5,27z"/>
	</g>
</g>
<g id="jaleco_resto">
	<path id="XMLID_10_" class="st2" d="M280.2,176.4c-9.9,5.3-19.9,10.5-29.8,15.8c-16.2,5.6-29.5,10.9-39.3,15
		c-16.2,6.9-21.6,10-26.8,15c-10,9.8-13.3,21.4-14.8,26.3c-8.5,28.4-22.9,54.8-34,82.3c-9.5,23.4-17.8,47.2-27.5,70.5
		c-4.3,10.3-7.6,17.9-7.8,29c-0.4,25.2,15.6,43.7,20.2,49c5.6,6.4,21,22.2,44.8,26.8c7.4,1.4,16.1,3,26-1
		c15.3-6.1,21.7-23.4,22.3-23c0.3,0.2-1.7,4.5-10.3,20.3c0.8,91.9-0.4,145.8,0.3,237.8c97.6-0.1,195.1-0.2,292.7-0.3
		c-5.1-45.5-7-55.9-8.8-107.2c-1.1-30.3-1.4-59.6-1.2-87.8l8.3-0.3l24-29.7c6.2-8,12.7-17.4,19-28c7.8-13.1,13.8-25.6,18.3-36.7
		c1.1-15.9,1.9-37.1,0.7-62c-0.9-18.6-2.3-46.6-10.3-79c-5.8-23.6-17.5-59-42.7-98.3c-8.7-4.6-18.6-9.3-29.7-13.7
		c-9.6-3.7-18.6-6.7-27-9c-10.9-3.2-21.8-6.4-32.7-9.7C369.6,177.7,324.9,177.1,280.2,176.4z"/>
</g>
<g id="jaleco_shadow">
	<path id="XMLID_60_" class="st3" d="M265.6,185.8c0.2,5,1,11,2.7,17.7c2.4,9.5,6.1,17.1,9.3,22.5c12.6-1.7,25.2-3.3,37.8-5
		c-8,10.3-16,20.7-24,31c30,19.2,60,38.4,90,57.7c21.9-20.1,43.8-40.2,65.7-60.3c-7.9-9.9-15.8-19.8-23.7-29.7
		c5.6,0.2,11.2,0.3,16.8,0.5c-1-5.4-3-12.9-7.2-21.2c-4.3-8.4-9.4-14.5-13.3-18.5c-17.2-6.7-45.4-15.2-79.8-14
		c-14.5,0.5-40.2,1.6-68,15.8C269.3,183.7,267.1,184.9,265.6,185.8z"/>
	<path id="XMLID_52_" class="st3" d="M209.1,494.7c17.1,6.4,37.6,12.7,61.1,17.4c24.8,5,47.3,7,66.3,7.6
		c-12.3-5.8-24.5-11.7-36.8-17.5c-28.1-6.6-56.3-13.3-84.4-19.9c-0.7,1.8-1.6,3.6-2.5,5.5C211.6,490.3,210.4,492.6,209.1,494.7z"/>
	<path id="XMLID_61_" class="st3" d="M439.3,507.8c0.5,3.5,3,19.3,17.2,30.7c11.6,9.3,24.2,10.2,28.3,10.3c0-1.6,0-3.2,0.1-4.8
		c-13.9-3.2-21.1-9.2-25-13.9c-8.1-9.8-10-23.6-16.5-23.8C441.6,506.3,440.2,507.2,439.3,507.8z"/>
	<path id="XMLID_116_" class="st3" d="M133.1,340.8c-0.6,1.6-1.1,3.1-1.7,4.7c4.4,13.2,8.8,24.1,12.6,32.4
		c5.4,12.1,9.5,19.3,14.8,26.5c1.5,2,2.8,3.7,3.8,4.8c0-1,0.1-2.1,0.1-3.1C152.8,384.3,142.9,362.5,133.1,340.8z"/>
	<path id="XMLID_118_" class="st3" d="M501.3,273.8c2.7,0.5-2.8,41.4-5.8,61.5c-5.8,39.3-13,71.3-18.5,93.5
		c-5.4,5.4-10.8,10.8-16.3,16.3c-7.3,4.5-14.5,9-21.8,13.5c4.5-7.6,9-15.6,13.5-24c2.4-4.5,4.8-9.1,7-13.5
		c2.8-9.6,6.8-23.6,11.5-40.5C491.7,306.2,498.8,273.3,501.3,273.8z"/>
	<path id="XMLID_133_" class="st3" d="M251.7,193.2c1.6-0.7,2.3-1.2,4.3-2.3c0.5-0.3,2-1.1,5-2.7c1.5-0.8,3.5-1.8,5.7-3
		c1,2.5,2,5,3,7.5c-5.8,2.9-11.6,5.8-17.3,8.7c-46.6,13.7-55.6,16-57.3,16.3c-0.5,0.1-2.2,0.4-2.3,0.1c-0.1-0.2,0.6-0.6,1.7-1.2
		c3.4-1.9,4.2-2.2,4.3-2.3c2.6-1.1,5.1-2.3,7.7-3.5c3.5-1.5,3.6-1.6,5.8-2.6c1.1-0.5,5.9-2.5,12.8-5.3c7.3-2.9,9.8-3.6,17.2-6.3
		c3.5-1.3,4-1.6,6-2.2C249.8,193.9,250.5,193.7,251.7,193.2z"/>
	<path id="XMLID_130_" class="st3" d="M428.3,194c10,0.5,22.1,1.8,35.6,5.2c16.7,4.1,30.3,10.1,40.6,15.4c-0.6-0.9-1.2-1.8-1.8-2.7
		c-13.2-7.1-24.7-12.1-33.5-15.6c-9.4-3.7-17.1-6.1-23-8c-10.3-3.3-19.2-5.7-26.1-7.4C422.8,185.3,425.5,189.6,428.3,194z"/>
	<path id="XMLID_76_" class="st3" d="M380,301.5c7.3,43.2,13.2,91.1,16,143.2c4.4,81.7,0.4,155-7,217.3"/>
	<g id="Layer_42">
	</g>
	<g id="Layer_43">
		<path id="XMLID_558_" class="st3" d="M212.2,488.5c-0.8,2.1-1.9,4.5-3.3,7s-2.9,4.7-4.3,6.5c0.8,91.6-0.4,145.1,0.3,236.7
			c7.4-0.1,14.8-0.1,22.2-0.2c-0.2-3.7-3.7-62.6-7.4-125.3C215.9,550.9,212.4,492.2,212.2,488.5z"/>
	</g>
	<g id="Layer_44">
		<path id="XMLID_109_" class="st3" d="M241.3,505.3c-0.3,0.3-1.1-0.3-4.8-1.5c0,0-1.6-0.5-3.3-1c-3.3-0.9-8.4-0.2-12.3,2.6
			c-3.7,2.6-5,6.1-6,8.7c-2.9,7.7-1.1,14.3-1.3,14.3c-0.6,0.1-11-28.8-0.7-35.3c6.6-4.2,17.8,0.3,23.5,5.5
			C239.2,501,241.8,504.7,241.3,505.3z"/>
	</g>
	<g id="Layer_45">
		<path id="XMLID_556_" class="st3" d="M439.3,471.3c-1.5,2.1-16.5,24.4-7.7,46c5,12.3,16.1,20.3,19,22.3c7.3,5.2,10.5,4.3,14.8,7.8
			c5.7,4.8,11.2,15.3,7.2,41.2c0.2,21.3,0.4,42.7,0.7,64c1,11.2,2.2,26.8,3.2,45.6c0,0,0.6,7.4,0.8,19.1c0.1,2.8,0.1,5.3-0.1,8.4
			c-0.3,5.3-0.9,9.7-1.5,12.8c6.8,0.3,13.5,0.5,20.3,0.8c-0.6-3.7-1.6-9.5-2.5-16.8c-1-8-1-11.2-2.8-29.3c-0.7-7.4-1.2-13-1.8-18.8
			c-1.1-12.1-1.9-21.2-2-21.8c-1.8-19.9-2.1-79.9-2.2-106c-22.5-2.9-39.9-18.4-43.2-37.3c-2.9-16.7,6.3-30.1,8.7-33.3
			C446.7,474.4,443,472.9,439.3,471.3z"/>
	</g>
</g>
<g id="jaleco_gola">
	<path id="XMLID_547_" class="st4" d="M311.6,135.6c-12.5,4.6-20.1,10.9-21.8,12.4c-8.7,7.5-13.6,15.7-16.2,20.9
		c-0.7,6.7-0.9,16.2,1.3,27.1c2,10.2,5.3,18.3,8.1,24.1c15.8-2.5,31.5-5,47.3-7.5c-9.3,12-18.7,23.9-28,35.9
		c26,16.6,52,33.3,78,49.9c19.3-17.3,38.6-34.6,57.9-51.9c-8.4-10.6-16.8-21.2-25.1-31.8c7,0.4,14.1,0.8,21.1,1.3
		c-3.6-11.5-10.3-28.3-23.1-45.9c-10.4-14.2-18.6-25.6-34.3-33.3C347.4,122.5,317.5,133.5,311.6,135.6z"/>
</g>
<g id="tabela">
	<path id="XMLID_539_" class="st5" d="M87,236c9.5,1.1,19,2.3,28.7,3.7c51.8,7.1,101,16.4,147.7,27.3
		c27.1,82.2,54.2,164.4,81.3,246.7c-31.1-8.8-63.4-17.2-97-25c-17.4-4.1-34.5-7.8-51.3-11.3C159.9,396.9,123.4,316.4,87,236z"/>
	<g id="Layer_40">
		<path id="XMLID_108_" class="st6" d="M160.3,396.5c45.3,17.2,66.2,12,76.8,3.2c9.4-7.9,13.2-20.7,30-30
			c10.3-5.7,20.4-7.2,27.3-7.7c15.8,49,31.6,98,47.4,147c-47-10.8-94-21.7-141-32.5C187.3,449.8,173.8,423.2,160.3,396.5z"/>
	</g>
</g>
<g id="tabela_deets">
	<path id="XMLID_534_" class="st7" d="M218.7,337c8.6,14.2,15.8,37.1,7.2,44.7c-0.2,0.2-1.2,1-2.8,1.7
		c-12.1,4.6-31.9-13.6-41.7-31.3c-5.9-10.6-14-31.6-5.5-40.7c0.5-0.6,1.7-1.7,3.5-2.5C190.5,304.1,209.2,321.4,218.7,337z"/>
	<g id="Layer_20">
		<path id="XMLID_46_" class="st8" d="M185.9,347.8c-2.5-2.5-3.4-4.3-2.9-5.3c0.8-1.6,5.1-1.4,13,0.6c-0.7-1.6-5.1-11.2-7.5-17.4
			c-0.5-1.3-1.4-3.9-0.4-5c0.5-0.5,1.3-0.5,1.5-0.5c0.4,0,1.8,0.1,3.7,2.9c3.1,4.7,8.8,19.6,9.3,20.8c2.7,0.4,5.1,0.7,7.3,0.8
			c4,0.3,5.6,0.1,6.9,1.3c0.6,0.6,1.8,2.1,1.3,5.8c-2.1-0.1-4.1-0.2-6.2-0.3c-2.3-0.1-4.7-0.2-7-0.3c0.8,1.6,8.1,17.1,8.8,20.9
			c0.1,0.5,0.3,1.6-0.3,2.4c-0.6,0.8-1.8,1-2.7,0.8c-1.4-0.4-2.2-1.8-2.5-2.5c-1.4-2.8-5.4-11.5-10.5-23.3c-2.2-0.2-4.5-0.4-6.9-0.8
			C189,348.3,187.4,348,185.9,347.8z"/>
	</g>
</g>
<g id="linha_manga_sombra">
	<path id="XMLID_21_" class="st9" d="M445.3,513.9c4.7,9.3,10.6,15.3,14.3,18.6c4.8,4.3,11.3,10,21.3,11.6c4.9,0.8,9.1,0.3,11.8-0.2
		c-4.7-12.9-9.4-25.8-14.2-38.8c-2.8,1.2-5.7,2.3-8.8,3.3C460.8,511.5,452.5,513.1,445.3,513.9z"/>
	<path id="XMLID_20_" class="st9" d="M166.1,487.7c3.4,0.5,7.9,1,13.3,0.9c6.9-0.1,12-1.2,15.2-1.9c4.7-1,11-2.8,18.2-6
		c-1.3,3.1-3,6.5-5.3,10.2c-1.9,3.1-3.9,5.7-5.7,8c-2.1,2-7.7,6.8-16.6,8.5c-9.2,1.7-16.1-1.1-19.1-2.2
		C166,499.3,166.1,493.5,166.1,487.7z"/>
</g>
<g id="linha_braço">
	<path id="XMLID_531_" class="st10" d="M502.5,275.5"/>
	<g id="XMLID_528_">
		<path id="XMLID_147_" class="st11" d="M502.5,275.5c-0.1,3.2-0.3,6.5-0.5,9.7s-0.4,6.5-0.7,9.7c-0.2,3.2-0.5,6.5-0.8,9.7l-0.9,9.7
			c-0.3,3.2-0.7,6.5-1.1,9.7c-0.4,3.2-0.8,6.5-1.2,9.7c-0.9,6.4-1.8,12.9-2.8,19.3c-1,6.4-2.1,12.8-3.3,19.2s-2.5,12.8-3.8,19.1
			c-1.3,6.4-2.8,12.7-4.3,19c-0.8,3.2-1.5,6.3-2.3,9.5l-2.4,9.4l-0.1,0.4l-0.3,0.3l-4.1,3.7c-1.4,1.2-2.7,2.5-4.1,3.8
			c-2.7,2.5-5.2,5.2-7.9,7.8c-0.7,0.7-1.3,1.3-2.1,1.9c-0.7,0.6-1.4,1.2-2.2,1.8c-1.5,1.2-3,2.3-4.6,3.3s-3.2,1.9-4.8,2.8
			c-1.7,0.9-3.3,1.6-5,2.4c3.3-1.8,6.4-3.8,9.3-6c1.5-1.1,2.9-2.3,4.2-3.5c0.7-0.6,1.3-1.3,2-1.9c0.6-0.6,1.3-1.3,1.9-2l3.7-4.2
			c1.2-1.4,2.5-2.7,3.8-4.1c1.3-1.4,2.6-2.7,3.9-4l3.9-3.9l-0.4,0.7l2.1-9.5l2-9.5c1.4-6.3,2.6-12.7,3.9-19l1.9-9.5l1.8-9.5
			c1.2-6.4,2.3-12.7,3.4-19.1c1.1-6.4,2.2-12.8,3.2-19.2s2-12.8,3-19.2s1.9-12.8,2.8-19.2L502.5,275.5z"/>
	</g>
</g>
<g id="botoes_linha">
	<g id="XMLID_16_">
		<path id="XMLID_141_" class="st12" d="M380.2,298.5c0,0,0.4,5.8,1.1,15.8c0.3,5,0.7,11.2,1.2,18.2s1,14.9,1.4,23.6
			c0.3,8.7,0.7,18,1.1,28c0.4,9.9,0.8,20.4,1.1,31.2c0.4,10.9,0.6,22,0.9,33.4s0.6,22.9,0.9,34.5c0.1,5.8,0.2,11.5,0.3,17.3
			c0.1,2.9,0.1,5.7,0.2,8.6c0,2.9,0,5.7,0.1,8.6c0.1,11.4,0.1,22.6,0.2,33.4c0.1,10.8,0.1,21.3,0.1,31.2s0,19.3,0,28
			s0,16.6-0.1,23.6c0,7-0.1,13.2-0.1,18.2c-0.1,10.1-0.1,15.9-0.1,15.9s-0.2-5.8-0.4-15.9c-0.1-5.1-0.3-11.2-0.4-18.2
			c-0.2-7-0.4-15-0.5-23.6c-0.2-8.7-0.3-18-0.5-28c-0.2-9.9-0.4-20.4-0.5-31.2s-0.3-22-0.4-33.4c0-2.8-0.1-5.7-0.1-8.5
			c-0.1-2.9-0.1-5.7-0.2-8.6c-0.1-5.8-0.3-11.5-0.4-17.3c-0.2-11.5-0.5-23.1-0.7-34.5s-0.4-22.6-0.7-33.4
			c-0.3-10.8-0.5-21.3-0.7-31.2s-0.4-19.3-0.6-28c-0.4-8.6-0.6-16.6-0.9-23.6c-0.2-7-0.5-13.2-0.6-18.2
			C380.3,304.3,380.2,298.5,380.2,298.5z"/>
	</g>
	<path id="XMLID_17_" class="st13" d="M363,321.8c-1.8,0.1-3.2,4.9-3.2,8.7c0,4.3,1.8,9.3,3.7,9.3c1.8,0,3.7-5,3.5-9.3
		C366.8,326.3,364.8,321.7,363,321.8z"/>
	<path id="XMLID_26_" class="st13" d="M365,406.8c-1.8,0.1-3.2,4.9-3.2,8.7c0,4.3,1.8,9.3,3.7,9.3c1.8,0,3.7-5,3.5-9.3
		C368.8,411.3,366.8,406.7,365,406.8z"/>
	<path id="XMLID_27_" class="st13" d="M370,538.8c-1.8,0.1-3.2,4.9-3.2,8.7c0,4.3,1.8,9.3,3.7,9.3c1.8,0,3.7-5,3.5-9.3
		C373.8,543.3,371.8,538.7,370,538.8z"/>
</g>
<g id="skin">
	<g id="arm_2">
		<path id="XMLID_521_" class="st14" d="M417.3,466c-7.4,0.3-13.4-1-20.8-2.5c-18.1-3.8-21.5-8.8-37.5-12.2c-14.5-3.1-31-3.1-32,0.7
			c-1,3.7,13.4,10,12.7,11.7c-1.4,3.1-51.4-16-55.3-8.3c-1.2,2.3,1.4,7.5-1,9c-1.2,0.8-2.9,0-4,1.2c-0.9,1-0.6,2.7-0.5,3.3
			c1.3,6.8,12.9,11.7,12.2,13.5c-0.2,0.6-1.5,0.2-2.2,1.2c-0.6,0.9-0.4,2.3,0.3,4.1c1.7,4.1,4.3,6.8,4.7,7.2
			c3.4,3.4,6.1,4.2,6.1,6.4c0,0.9-0.5,1-0.8,2.2c-0.6,2.6,1.1,5.1,1.8,6.2c12.3,18.1,37.2,20,37.2,20c4.4,0.4,12.9,1,22.5-2.5
			c5.3-1.9,6.8-3.6,17.5-8c7.9-3.2,11.3-4.1,14-4.5c6.1-1,10.6-0.5,13.8-0.3c19.8,1.7,37.5-1.2,42.3-2c9.2-1.5,16-3.6,18.8-4.5
			c15.7-5.1,26.3-8.3,29.3-15.8c5.9-14.8-11.6-41.5-30-43.5C450.1,446.7,443.1,465,417.3,466z"/>
	</g>
	<g id="arm_1">
		<path id="XMLID_5_" class="st14" d="M166.3,407c0.7,0.1,0.9,0.4,3.8,2.3c0,0,1.5,1,4.5,2.8c0,0,3,1.8,6.9,3.6
			c2.9,1.4,18.6,7.4,38.6,2.7c13.4-3.1,22.7-9.7,27.7-13.3c9.9-7.2,24.6-21.4,32.7-22.3c0,0,3.8-0.4,8.8-1.1
			c2.6-0.4,3.7-0.5,4.9-0.8c3.3-0.8,3.7-1.3,7-1.9c4.9-1,8.8-0.8,11.7-0.7c3.5,0.2,8,0.4,13.3,2.2c6.1,2,10.6,3.5,12.3,7.4
			c1.7,4-0.7,8.6,1.8,10c1,0.6,1.5,0,3,0.5c2.5,0.9,4.4,3.9,4.8,6.5c0.7,5.3-4.4,9.1-3,10.8c0.9,1.1,3.2-0.6,5,0.8
			c2.3,1.7,1.4,6.7,1.3,7.3c-0.9,4.4-3.7,6.1-2.8,8.3c0.5,1.3,1.6,1.2,2.3,2.3c2.3,3.4-3.3,10.9-4.2,12
			c-6.5,8.6-20.7,19.2-35.5,16.5c-5-0.9-4.5-2.3-12.3-4.2c-3.6-0.8-11.3-2.6-20.8-1.3c-4.5,0.6-9.4,2.4-19,6c-8.5,3.2-13,5.2-17.5,7
			c0,0-12.8,5.2-29.2,9.5c-17.3,4.6-30,7.7-46,6c-3.4-0.4-32.6-3.5-35.8-16.9c-0.4-1.7-0.3-3.2,1-8c5-18.3,11.8-25,27.3-47.8
			C159.4,411.6,163,406.4,166.3,407z"/>
	</g>
	<g id="neck">
		<path id="XMLID_519_" class="st14" d="M321.3,99c-4.7,6.5-6.1,14.8-6.8,18.5c-1.1,6.6-0.5,10-0.3,20.7c0.2,15.7-1.2,15.3-0.7,22.8
			c1.3,18.9,10.7,33.2,13.8,37.7c7,9.9,9.6,8.2,18,20c4.4,6.1,5.1,8.6,13,23.3c14.5,27.1,16.9,27.9,18.3,28
			c2.7,0.2,7.1-1.7,23.7-39.7c15.6-35.7,16.9-46.1,12.2-51.1l-14.7-7.7l0,0c-8.9-3-12.5-1.6-16-4.5c-5.9-4.8-3.5-15.1-2.8-25.8
			c0.3-4.7,3-41.9-12.3-52.8C354.6,79.9,330.9,85.7,321.3,99z"/>
	</g>
	<g id="neck_shadow">
		<path id="XMLID_82_" class="st15" d="M313.3,117.3c-0.2,0.5,0.1,0.6,0.2,5.6c0.1,2.3,0,2.4,0.1,6.2c0,3.1,0.1,6.4,0.1,6.4
			c0.1,3.1,0.1,4.5,0,6.2c-0.2,3.6-0.5,4.2-0.4,4.9c1.7,7.8,55.7,1.5,63.8-6.9c0.5-0.5,2.4-2.7,5.6-4.9c4.2-2.8,6.4-2.7,6.5-3.6
			c0.6-3.8-34.4-11.2-40.7-12.5C342.2,117.3,315.2,111.9,313.3,117.3z"/>
	</g>
	<path id="hed_1_" class="st14" d="M377.8-73.5c3.3,1.5,1.9,5.1,9,14c2.2,2.7,5.1,5.9,14.5,13.5c10.7,8.7,13.4,9.8,17.5,13.3
		c14.1,12,18.1,29.7,20.3,39c3,13.1,2.1,22.9,0.8,36.8c-2,21.3-4.2,42.8-19.5,62.8c-1.8,2.3-9.8,12.4-23.5,21.3
		c-7.2,4.6-14,9-23.8,10.3c-8.9,1.2-15.2-0.9-27.8-5c-8.4-2.7-23.6-7.9-38.5-20.3c-6.8-5.7-11.4-11-14.3-14.8c-4.1-5.4-6.2-8-7.5-12
		c-1.9-5.7-1.1-8.8-3.8-11c-3.1-2.5-6.7-0.4-11.3-0.8c-12.2-1-19.9-18.6-20.5-20c-5.1-12.1-5.4-30.5,5-38.3c0.4-0.3,7.6-5.5,14.5-3
		c9.2,3.4,11.5,18.2,12.3,18c0.7-0.2-5.6-12.2-3.5-22.8c2.9-14.4,19.9-16.7,41.5-30.8C354.5-46.2,367.8-78.1,377.8-73.5z"/>
</g>
<g id="skin_deets">
	<path id="XMLID_122_" class="st16" d="M478.8,505.4c-4.1-7-10-15.7-18.4-24.5c-9-9.5-18-16.1-25.3-20.6c0.7-0.3,1.4-0.6,2.2-1
		c0.7-0.4,1.3-0.7,1.9-1.1c3.9,1.6,7.8,3.3,11.7,4.9c5.1,4.7,10.6,10.3,16.1,16.8c6.6,7.7,11.9,15.1,16.3,21.9
		c-0.3,0.4-0.6,1-1.2,1.5c-0.5,0.6-1.1,1-1.5,1.3C480,504.8,479.4,505.1,478.8,505.4z"/>
	<path id="XMLID_123_" class="st16" d="M201.1,418.8c-5.9,3.6-15.9,10.7-23.9,23.3c-12.1,19.1-11.5,38.3-10.9,45.2
		c1,0.1,2.1,0.2,3.2,0.3c1.6,0.1,3.2,0.2,4.8,0.2c-0.8-7.1-1.2-20,3.9-34.8C184.4,434.8,195.5,423.7,201.1,418.8z"/>
	<path id="XMLID_47_" class="st17" d="M352.8,420.4c-0.1,0.2-0.8,0.6-1.8,1.2c0,0-0.5,0.3-1.1,0.5c-1.1,0.5-8.2-0.9-17.5-4.5
		c-5.8-2.5-13.4-4.7-22.2-4.4c-1.2,0-2.4,0.1-3.5,0.3c-0.5,0.3-1.3,0.7-2.2,1.2c-0.8,0.4-0.9,0.4-1,0.4c-0.2-0.2,2.2-2.2,2.3-2.3
		C311.6,407.8,353.3,418.5,352.8,420.4z"/>
	<path id="XMLID_124_" class="st16" d="M262.9,59.2c0.5-0.1-0.4-5.2,1.6-6.2c1.7-0.8,4,1.9,4.8,1.3c0.8-0.7-1.8-4.8-3.1-6.9
		c-2.2-3.4-3.7-5.8-4.6-5.5c-1.1,0.3-0.8,3.9-0.6,7.3C261.3,54.7,262.4,59.2,262.9,59.2z"/>
	<path id="XMLID_125_" class="st18" d="M333,53c-1-0.4-12.5-4.9-21.5,2c-5.5,4.3-6.8,10.3-7,11.5c-1.9,9.7,4,21.4,14.5,25
		c12.2,4.1,27-4.1,28.9-16C349.4,65.5,341.2,56.4,333,53z"/>
	<path id="XMLID_126_" class="st18" d="M440.3,52.6c-2-4-11.4-4.7-18.3-1.6c-6.2,2.8-10.6,8.8-11.7,15.3c-1.2,7.3,1.5,16.1,8,20
		c4.6,2.8,11.7,3.4,14.2,0.5c0.2-0.3,0.8-1.7,1.8-4.4c1.9-5.3,2.1-6.1,2.3-6.7c0.2-0.6,0.3-1.4,1.1-5.6c0.4-2,0.7-3.9,1.4-7.9
		C440.5,53.4,440.5,53.1,440.3,52.6z"/>
	<path id="XMLID_127_" class="st19" d="M384.3,50.5c-1.6,0.8-0.2,3.8-1.5,7.5c-1.5,4.3-5.2,5.2-4.7,7.3c0.4,1.7,3,2.6,4.8,2.7
		c4,0.1,8.1-3.6,8.7-8c0.5-3.9-2-7.6-4.7-9C386.3,50.6,385.2,50.1,384.3,50.5z"/>
	<g id="XMLID_128_">
		<path id="XMLID_145_" class="st20" d="M318,184.7c0,0,0.6,0,1.6,0s2.5,0,4.2,0s3.7-0.2,5.8-0.4c0.5-0.1,1.1-0.1,1.6-0.2
			c0.6-0.1,1.1-0.2,1.7-0.3c1.1-0.2,2.2-0.4,3.3-0.7c1.1-0.2,2.2-0.5,3.4-0.8c1.1-0.3,2.2-0.5,3.3-0.7c1.1-0.2,2.2-0.3,3.3-0.2
			c1.1,0.1,2.1,0.3,2.9,0.8c0.4,0.2,0.8,0.5,1.2,0.7c0.3,0.2,0.6,0.5,0.9,0.8c0.5,0.5,0.9,1.1,1.2,1.5c0.3,0.4,0.4,0.8,0.5,1.1
			c0.1,0.3,0.2,0.4,0.2,0.4s-0.3-0.5-1-1.2c-0.3-0.4-0.8-0.8-1.3-1.2c-0.5-0.4-1.2-0.7-2-1s-1.6-0.3-2.5-0.3s-1.9,0.2-2.9,0.4
			c-1,0.2-2.1,0.5-3.2,0.8s-2.2,0.6-3.4,0.9c-1.1,0.3-2.3,0.5-3.5,0.7c-0.6,0.1-1.1,0.2-1.7,0.2c-0.6,0.1-1.1,0.1-1.7,0.1
			c-2.2,0.1-4.3,0-6-0.2c-1.8-0.2-3.2-0.5-4.2-0.8c-0.5-0.1-0.9-0.2-1.1-0.3C318.1,184.7,318,184.7,318,184.7z"/>
	</g>
	<g id="XMLID_129_">
		<path id="XMLID_143_" class="st20" d="M374.7,185c0,0-0.1-0.4-0.3-1.1c-0.1-0.4-0.1-0.8-0.1-1.3s0.1-1.2,0.5-1.8
			c0.2-0.3,0.4-0.6,0.7-0.9c0.4-0.3,0.7-0.5,1.2-0.6c0.8-0.2,1.6-0.3,2.4-0.2c1.6,0.1,3.2,0.5,4.8,0.8c0.8,0.2,1.6,0.4,2.3,0.7
			c0.8,0.2,1.5,0.5,2.2,0.8c1.4,0.5,2.8,1.1,3.9,1.6c2.2,1.1,3.6,2,3.6,2s-1.6-0.3-4-0.9c-1.2-0.3-2.5-0.6-4-1s-3-0.8-4.6-1.2
			c-0.8-0.2-1.5-0.4-2.3-0.6s-1.5-0.4-2.2-0.4c-0.7-0.1-1.4-0.2-1.9-0.1c-0.3,0-0.5,0.1-0.7,0.2s-0.4,0.3-0.6,0.5
			c-0.7,0.8-0.9,1.8-1,2.5C374.7,184.6,374.7,185,374.7,185z"/>
	</g>
</g>
<g id="camisa_shadow">
	<path id="XMLID_505_" class="st21" d="M250.6,466.5c-0.1,1.7-0.3,3.4-0.4,5.2"/>
	<path id="XMLID_504_" class="st21" d="M251.1,467.8c-2,0.8-2.6,0.8-2.9,1.4c-0.3,0.6-0.1,1.4,0.3,1.8c1,1.2,4,0.7,5.1-1
		c0.7-1.1,0.6-2.7-0.1-3.1C253.1,466.7,252.8,467.1,251.1,467.8z"/>
</g>
<g id="camisa_manga">
	<g id="XMLID_494_">
		<path id="XMLID_139_" class="st21" d="M232.7,412c0,0,0.2,1.1,0.4,3c0.1,0.9,0.3,2.1,0.5,3.4c0.2,1.3,0.4,2.8,0.6,4.4
			c0.3,1.6,0.6,3.3,0.9,5.1s0.8,3.7,1.2,5.6c0.5,1.9,1,3.9,1.6,5.9s1.2,4,1.9,6c0.7,2,1.5,4,2.2,5.9c0.8,1.9,1.6,3.9,2.4,5.7
			s1.6,3.6,2.4,5.2c0.8,1.6,1.6,3.2,2.4,4.5s1.6,2.6,2.4,3.4c0.2,0.2,0.4,0.3,0.6,0.4c0.1,0.1,0.2,0.1,0.2,0.1s0,0,0.1,0l0,0
			c0,0,0.1,0-0.1,0l0,0h0.1h0.1c0,0,0.2-0.1,0.3-0.3c0.1-0.2,0.2-0.4,0.3-0.6c0.3-0.8,0.5-1.6,0.6-2.1s0.1-0.8,0.1-0.8
			s0,0.3,0.1,0.8c0,0.5,0.1,1.3-0.1,2.3c0,0.3-0.1,0.5-0.2,0.8s-0.2,0.6-0.7,0.9l-0.1,0.1l0,0l0,0h-0.1l0,0c-0.1,0-0.2,0.1-0.4,0.1
			c-0.2,0-0.5,0-0.7-0.1c-0.4-0.1-0.8-0.3-1.1-0.5c-1.3-0.8-2.3-2-3.4-3.3s-2.1-2.8-3.1-4.4c-1-1.6-2-3.3-3-5.2
			c-1-1.8-1.9-3.7-2.8-5.7s-1.7-4.1-2.4-6.1c-0.7-2.1-1.4-4.2-1.9-6.3s-1-4.2-1.3-6.3c-0.3-2-0.6-4-0.7-5.9
			c-0.2-1.9-0.2-3.7-0.2-5.3s0-3.2,0.1-4.5c0-1.3,0.2-2.5,0.3-3.5c0.1-0.9,0.2-1.7,0.3-2.2C232.6,412.3,232.7,412,232.7,412z"/>
	</g>
	<path id="XMLID_493_" class="st22" d="M252.7,471.7c0.5,2.2-21.8,10.5-48.3,15.7c-13.9,2.7-34.3,6.5-37.7-0.2
		c-0.4-0.9-0.4-1.5,0.2-6.8c1.2-10.7,1.7-16.1,2-17.3c1.3-4.9,4-15.6,12-27c6.1-8.7,10.1-10.5,12.7-14c0.4-0.6,1.5-1.9,3.3-2.7
		c0.8-0.3,1.5-0.4,1.8-0.5c3.6-0.6,5.4-0.8,7.5-0.8c2.7,0,9.3-0.3,15.5-2.3c2.9-0.9,6.2-1.1,8.8-2.7c0.3-0.2,1.5-0.9,2-0.5
		s0,1.4,0,3.7c0,0.2,0,0.3,0.1,1.7c0.1,1.5,0.3,3,0.4,4.5c0.2,2.3,1.3,13.2,5.7,26.7c1.3,3.9,3.2,7.9,7.2,15.8c0.8,1.6,2,4,4.7,5.7
		C251.9,471.4,252.6,471.3,252.7,471.7z"/>
	<g id="Layer_50">
		<path id="XMLID_156_" class="st23" d="M203.6,418.2c0.6,0.6-18.8,14.2-26.6,34.3c-4.9,12.6-5.9,29.7-5.6,31.8c0,0.1,0.1,1.5,0,3
			c-0.1,0.9-0.1,0.8-0.2,1.7c0,0.7,0,0.9-0.2,1.1c-0.4,0.3-1.3-0.1-2-0.4c-2.9-1.4-3.9-2-3.9-2c-4-2.5-4-2.5-4-2.5
			c-11.7-12.2,6.9-61,33.5-66.3c3.1-0.6,5.6-0.5,6.9-0.4c0.5-0.1,0.9-0.2,1.2-0.2C203.2,418.2,203.5,418.1,203.6,418.2z"/>
	</g>
	<g id="Layer_53">
		<path id="XMLID_502_" class="st21" d="M403.5,515.5c-0.3-0.3-0.6-0.1-3-0.1c-2.1,0-2.4-0.2-2.7,0.1c-0.4,0.4-0.1,1.2,1.7,5
			c1.1,2.5,1.3,2.8,1.5,2.8C402.6,523.5,405.1,516.7,403.5,515.5z"/>
	</g>
	<g id="Layer_51">
		<g id="XMLID_157_">
			<path id="XMLID_137_" class="st21" d="M402,463c0,0,0.4,1,1,2.9s1.3,4.5,2,7.8c0.4,1.6,0.7,3.4,1,5.3c0.3,1.9,0.6,3.9,0.8,6
				c0.2,2.1,0.4,4.2,0.5,6.4s0.1,4.4,0.1,6.7c0,2.2-0.1,4.5-0.3,6.6c-0.1,2.2-0.4,4.3-0.6,6.4c-0.2,2.1-0.6,4.1-1,6
				s-0.9,3.7-1.7,5.3c-0.2,0.4-0.4,0.8-0.8,1.2l-0.3,0.3c-0.1,0.1-0.3,0.2-0.4,0.3s-0.3,0.1-0.5,0.2h-0.1l0,0c0.1,0-0.1,0-0.1,0
				h-0.1c0,0-0.1,0-0.2,0c-0.5-0.1-0.6-0.3-0.8-0.4c-0.2-0.2-0.3-0.3-0.4-0.5c-0.2-0.3-0.4-0.7-0.6-1c-0.6-1.3-0.9-2.4-1.2-3.4
				c-0.2-0.9-0.4-1.7-0.5-2.2s-0.2-0.8-0.2-0.8s0.4,1,1.2,2.8c0.4,0.9,0.9,1.9,1.6,3c0.2,0.3,0.4,0.5,0.6,0.7
				c0.1,0.1,0.2,0.2,0.3,0.3c0.1,0,0.2,0.1,0.2,0.1s0,0,0.1,0h0.1h-0.1l0,0l0,0l0,0c0,0,0,0,0.1-0.1l0.1-0.1
				c0.2-0.2,0.3-0.5,0.4-0.9c0.5-1.4,0.8-3.2,1-5s0.4-3.8,0.6-5.9c0.2-2,0.2-4.2,0.3-6.3c0.1-2.2,0.1-4.3,0.2-6.5
				c0-2.2,0.1-4.4,0-6.5c-0.1-2.2-0.1-4.3-0.2-6.3s-0.2-4-0.4-5.9c-0.2-1.9-0.3-3.7-0.5-5.3c-0.3-3.3-0.7-6-0.9-7.9
				C402.1,464.1,402,463,402,463z"/>
		</g>
	</g>
	<g id="Layer_52">
		<path id="XMLID_498_" class="st24" d="M483,511.2c0.2-1.4-2.7-6.4-8.5-16.5c-3.9-6.8-5.9-10.2-8.2-13.5c-3.3-4.7-8.4-11.1-16-17.8
			c-3.6-1.7-7.1-3.3-10.7-5c-3.8,2-9.6,4.6-17,5.8c-8.6,1.4-15.7,0.6-20.2-0.3c2,7.8,4,18.4,3.8,31.2c-0.1,11.5-1.9,21.2-3.8,28.5
			C466.3,522.7,482.2,516.9,483,511.2z"/>
	</g>
	<g id="Layer_54">
		<path id="XMLID_215_" class="st25" d="M436.2,459.9c0.5-0.3,1.1-0.5,1.7-0.8c0.5-0.2,1-0.4,1.5-0.6c3.6,1.4,7.1,2.9,10.7,4.3
			c5.9,5.3,13.4,13.2,20.3,24.1c6.1,9.8,9.8,19,12,26.1c-0.4,0.5-1,1-1.7,1.5c-0.8,0.6-1.6,1-2.2,1.3c-2.4-7.6-6.7-18.2-14.6-29.3
			C454.3,473.2,443.5,464.8,436.2,459.9z"/>
	</g>
</g>
<g id="camisa_2">
	<g id="Layer_56">
		<path id="XMLID_56_" class="st26" d="M232.1,409.9c0.3-0.3,0.8-0.4,0.8-0.4c0.7-0.1,1.3,0.3,1.5,0.5c0.4,0.3,0.6,0.5,1,0.5
			c0.2,0,0.4,0,0.4,0.1s-0.1,0.1-0.2,0.2c-0.6,0.4-0.7,0.4-0.7,0.4c-0.3,0.1-0.6,0.3-1.1,0.5c-0.4,0.2-0.5,0.2-0.6,0.4
			c-0.1,0.1-0.2,0.3-0.3,0.7c-0.2,0.7,0,1.2,0,1.2C232.7,414,231.2,410.8,232.1,409.9z"/>
	</g>
	<path id="XMLID_487_" class="st21" d="M233.2,409.5c-7.3,0.9-14.6,1.8-21.8,2.7c-0.6,8.1-0.6,19.9,2.7,33.5
		c3.9,16.2,10.8,28.2,15.8,35.5c4.9-0.9,10.9-2.6,17.2-5.8c2.2-1.1,4.1-2.3,5.9-3.4c-4.6-6.5-10.4-16.4-14.6-29.4
		C234.1,429.2,233.2,417.6,233.2,409.5z"/>
	<g id="Layer_57">
		<path id="XMLID_491_" class="st26" d="M250.4,468L250.4,468c-0.2,0.2,0.6,1.4,1.3,2.2c0.8,0.9,1.3,1.4,1.6,1.3
			c1-0.2,1.2-4.4,0.2-4.8h-0.1c-0.5,0-0.8,0.3-1.5,0.6c-0.5,0.2-1.1,0.4-1.3,0.5C250.7,467.9,250.6,467.9,250.4,468z"/>
	</g>
	<g id="Layer_58">
		<path id="XMLID_114_" class="st21" d="M404.9,492.9c0.1,2.1,0.1,4.2,0.1,6.2l0,0c0,0.1-1,5.9-1,8.3l0,0l0,0c-0.5,3-1,6.1-1.4,9.2
			c-0.4,2.6-0.8,5.1-1.1,7.7c2.1,0.2,4.2,0.3,6.4,0.3c7.6,0.2,14.4-0.5,20.5-1.5c2.1-11.3,2.2-20.5,1.8-26.8c-0.4-7-1.4-12.9-2.7-20
			c-1.4-7.8-2.9-14.2-4-18.8c-3,0.6-6.2,1.2-9.7,1.7c-4.4,0.6-8.6,0.9-12.5,1.1C403.3,470.2,404.6,481.2,404.9,492.9z"/>
	</g>
	<g id="Layer_59">
		<path id="XMLID_489_" class="st26" d="M401.4,460.2c0.2,0.9,0.3,1.8,0.5,2.8c-0.9-0.2-1.8-0.3-2.7-0.5c0.3-0.4,0.6-0.9,1.1-1.3
			C400.7,460.8,401.1,460.5,401.4,460.2z"/>
	</g>
	<g id="Layer_60">
		<path id="XMLID_113_" class="st26" d="M402.8,515.4c-0.5,3-1,5.9-1.4,8.9h-0.1c-0.3,0-0.8-0.2-1.6-1.6c-0.1-0.2-0.4-0.7-0.8-1.9
			s-0.7-2.5-0.7-2.7c-0.1-0.5-0.3-1.2-0.5-2.1c0-0.1-0.1-0.2-0.1-0.3s-0.1-0.2,0-0.3l0,0c0,0,0.1-0.1,0.4-0.1c0.2,0,0.3,0,0.4,0
			C399.9,515.4,401.3,515.4,402.8,515.4z"/>
	</g>
</g>
<g id="botoes_camisa">
	<g id="XMLID_230_">
		<path id="XMLID_246_" class="st26" d="M243.3,457.9c0,0,0.1,0.2,0.4,0.6c0.2,0.4,0.6,0.9,1,1.5c0.8,1.3,1.8,2.9,2.7,4.6
			c1,1.7,1.9,3.4,2.6,4.7c0.3,0.7,0.6,1.2,0.8,1.6c0.2,0.4,0.3,0.6,0.3,0.6s-0.7-0.7-1.6-1.9s-2-2.8-3-4.5s-1.8-3.5-2.4-4.9
			C243.6,458.9,243.3,457.9,243.3,457.9z"/>
	</g>
	<g id="XMLID_226_">
		<path id="XMLID_243_" class="st26" d="M236.4,439.7c0,0,0.1,0.2,0.3,0.6c0.2,0.4,0.4,1,0.7,1.7c0.6,1.4,1.3,3.3,2,5.2
			s1.4,3.8,1.9,5.3c0.2,0.7,0.4,1.3,0.6,1.8c0.1,0.4,0.2,0.7,0.2,0.7s-0.6-0.9-1.3-2.2c-0.7-1.4-1.6-3.2-2.3-5.2
			c-0.7-1.9-1.3-3.9-1.6-5.4C236.5,440.8,236.4,439.7,236.4,439.7z"/>
	</g>
	<g id="XMLID_221_">
		<path id="XMLID_241_" class="st26" d="M233.1,424.7c0,0,0.3,0.7,0.6,1.9c0.3,1.1,0.7,2.6,1,4.1s0.6,3,0.7,4.2
			c0.2,1.2,0.2,1.9,0.2,1.9s-0.4-0.7-0.8-1.8s-0.8-2.6-1.1-4.1c-0.3-1.5-0.5-3.1-0.6-4.2C233,425.5,233.1,424.7,233.1,424.7z"/>
	</g>
	<g id="XMLID_222_">
		<path id="XMLID_239_" class="st26" d="M231.8,410.9c0,0,0.2,0.7,0.4,1.7c0.2,1,0.3,2.4,0.4,3.7c0.1,1.4,0.2,2.7,0.1,3.8
			c0,1-0.1,1.7-0.1,1.7s-0.3-0.7-0.5-1.7s-0.5-2.4-0.6-3.8c-0.1-1.4-0.1-2.8,0-3.8C231.7,411.6,231.8,410.9,231.8,410.9z"/>
	</g>
	<g id="XMLID_262_">
		<path id="XMLID_233_" class="st26" d="M406.6,509.1c0,0,0.1,0.9,0,2.1c0,1.3-0.2,3-0.4,4.7c-0.3,1.7-0.6,3.3-1,4.6
			c-0.4,1.2-0.7,2-0.7,2s0-0.9,0.1-2.1c0.1-1.3,0.3-2.9,0.6-4.6c0.3-1.7,0.6-3.3,0.8-4.6C406.3,509.9,406.6,509.1,406.6,509.1z"/>
	</g>
	<g id="XMLID_256_">
		<path id="XMLID_223_" class="st26" d="M407.4,493.5c0,0,0.2,0.8,0.3,1.9c0.1,1.1,0.2,2.7,0.1,4.2s-0.2,3.1-0.4,4.2
			c-0.2,1.1-0.4,1.9-0.4,1.9s-0.1-0.8-0.1-1.9c0-1.1,0-2.7,0-4.2c0.1-1.5,0.2-3,0.3-4.2C407.2,494.3,407.4,493.5,407.4,493.5z"/>
	</g>
	<g id="XMLID_247_">
		<path id="XMLID_219_" class="st26" d="M406.3,476.6c0,0,0.3,0.8,0.5,2.1c0.3,1.3,0.5,2.9,0.6,4.6c0.1,1.7,0.1,3.4,0.1,4.7
			c-0.1,1.3-0.2,2.1-0.2,2.1s-0.2-0.8-0.4-2.1c-0.2-1.3-0.4-2.9-0.5-4.6c-0.1-1.7-0.2-3.4-0.2-4.7
			C406.3,477.5,406.3,476.6,406.3,476.6z"/>
	</g>
	<g id="XMLID_255_">
		<path id="XMLID_213_" class="st26" d="M403.8,462.5c0,0,0.3,0.7,0.7,1.7c0.3,1,0.7,2.4,1,3.8c0.3,1.4,0.4,2.8,0.5,3.9
			c0,1.1,0,1.8,0,1.8s-0.3-0.7-0.6-1.7c-0.3-1-0.6-2.4-0.9-3.8c-0.3-1.4-0.5-2.8-0.6-3.9C403.8,463.2,403.8,462.5,403.8,462.5z"/>
	</g>
	<g id="XMLID_236_">
		<path id="XMLID_211_" class="st26" d="M225.2,466.2c0,0,0.5,0.7,1.1,1.8s1.4,2.6,2.2,4.1c0.7,1.5,1.5,3,1.9,4.2
			c0.5,1.2,0.8,2,0.8,2s-0.6-0.6-1.3-1.7c-0.7-1-1.6-2.5-2.3-4c-0.8-1.5-1.4-3.1-1.8-4.3C225.3,467,225.2,466.2,225.2,466.2z"/>
	</g>
	<g id="XMLID_232_">
		<path id="XMLID_209_" class="st26" d="M217.7,444.4c0,0,0.1,0.3,0.3,0.8c0.2,0.5,0.4,1.2,0.8,2.1c0.6,1.8,1.4,4.1,2.2,6.4
			c0.8,2.3,1.5,4.7,2.1,6.5c0.3,0.9,0.5,1.6,0.6,2.2c0.2,0.5,0.2,0.8,0.2,0.8s-0.6-1.1-1.4-2.8s-1.7-4-2.5-6.4s-1.4-4.8-1.8-6.6
			C217.9,445.7,217.7,444.4,217.7,444.4z"/>
	</g>
	<g id="XMLID_229_">
		<path id="XMLID_207_" class="st26" d="M214.7,427.8c0,0,0.3,0.8,0.6,2.1c0.3,1.3,0.6,3,0.9,4.6c0.3,1.7,0.5,3.4,0.7,4.7
			c0.1,1.3,0.2,2.2,0.2,2.2s-0.4-0.8-0.7-2.1c-0.4-1.2-0.8-2.9-1.1-4.6c-0.3-1.7-0.5-3.4-0.5-4.7
			C214.6,428.6,214.7,427.8,214.7,427.8z"/>
	</g>
	<g id="XMLID_231_">
		<path id="XMLID_205_" class="st26" d="M213.8,414.5c0,0,0.2,0.6,0.3,1.6c0.2,1,0.3,2.3,0.4,3.6s0.1,2.6,0,3.6c0,1-0.1,1.6-0.1,1.6
			s-0.2-0.6-0.4-1.6c-0.2-1-0.4-2.3-0.5-3.6s0-2.6,0.1-3.6C213.7,415.2,213.8,414.5,213.8,414.5z"/>
	</g>
	<g id="XMLID_244_">
		<path id="XMLID_203_" class="st26" d="M426.3,512c0,0,0.1,0.6,0.2,1.4c0.1,0.9,0.1,2,0,3.1s-0.2,2.2-0.4,3.1
			c-0.2,0.8-0.4,1.4-0.4,1.4s-0.1-0.6-0.2-1.4c-0.1-0.9-0.1-2,0-3.1s0.3-2.2,0.4-3.1C426.1,512.6,426.3,512,426.3,512z"/>
	</g>
	<g id="XMLID_238_">
		<path id="XMLID_201_" class="st26" d="M426.2,491.9c0,0,0.2,1,0.4,2.6c0.2,1.6,0.4,3.6,0.4,5.7c0,2.1-0.1,4.2-0.2,5.7
			c-0.2,1.6-0.3,2.6-0.3,2.6s0-0.3-0.1-0.7c0-0.5-0.1-1.1-0.2-1.9c-0.1-1.6-0.2-3.6-0.2-5.7c0-2.1,0-4.1,0-5.7
			c0-0.8,0.1-1.4,0.1-1.9C426.1,492.2,426.2,491.9,426.2,491.9z"/>
	</g>
	<g id="XMLID_235_">
		<path id="XMLID_199_" class="st26" d="M424.4,475.8c0,0,0.3,0.8,0.6,1.9c0.3,1.2,0.6,2.8,0.8,4.4c0.2,1.6,0.3,3.2,0.3,4.4
			s-0.1,2-0.1,2s-0.2-0.8-0.5-2c-0.2-1.2-0.5-2.8-0.7-4.4c-0.2-1.6-0.3-3.2-0.4-4.4C424.4,476.6,424.4,475.8,424.4,475.8z"/>
	</g>
	<g id="XMLID_237_">
		<path id="XMLID_197_" class="st26" d="M421.3,460.5c0,0,0.4,0.7,0.7,1.9c0.4,1.1,0.8,2.6,1.2,4.2c0.3,1.5,0.5,3.1,0.6,4.3
			s0.1,2,0.1,2s-0.3-0.7-0.6-1.9c-0.3-1.1-0.7-2.7-1-4.2s-0.6-3.1-0.7-4.3C421.4,461.3,421.3,460.5,421.3,460.5z"/>
	</g>
</g>
<g id="more_hair_deets">
	<g id="XMLID_436_">
		<path id="XMLID_135_" class="st1" d="M377-92c0,0-0.1,2.1-0.3,5.9c0,1-0.2,2-0.3,3.1c-0.1,0.6-0.1,1.1-0.2,1.7
			c-0.1,0.6-0.2,1.2-0.3,1.9c-0.2,1.3-0.5,2.7-0.9,4.1c-0.2,0.7-0.4,1.4-0.5,2.2c-0.2,0.7-0.5,1.5-0.7,2.3c-0.4,1.6-1.1,3.1-1.6,4.7
			c-0.3,0.8-0.7,1.6-1,2.4c-0.3,0.8-0.7,1.7-1.1,2.5c-1.6,3.4-3.4,6.8-5.7,10.2c-2.2,3.4-4.7,6.8-7.3,10c-0.7,0.8-1.3,1.6-2,2.4
			c-0.7,0.9-1.4,1.6-2.1,2.4l-2.1,2.4c-0.7,0.8-1.5,1.5-2.3,2.3l-2.3,2.3c-0.8,0.7-1.6,1.4-2.4,2.1c-0.8,0.7-1.6,1.4-2.4,2.1
			c-0.8,0.7-1.7,1.3-2.5,2s-1.7,1.3-2.5,2c-0.9,0.6-1.7,1.2-2.6,1.8s-1.7,1.2-2.5,1.8c-0.9,0.6-1.7,1.1-2.6,1.6
			c-1.7,1.1-3.4,2.1-5.1,3.1s-3.4,1.8-5,2.7c-3.3,1.7-6.4,3.1-9.4,4.4c-3,1.3-5.7,2.3-8.2,3.1s-4.6,1.5-6.4,2.1
			c-1.8,0.5-3.2,0.9-4.2,1.1c-1,0.2-1.5,0.4-1.5,0.4s2-0.6,5.5-1.9C298-2,303-4,308.8-6.7c2.9-1.4,6-2.9,9.2-4.7
			c1.6-0.9,3.2-1.8,4.9-2.8c1.6-1,3.3-2,4.9-3.1c0.8-0.5,1.7-1.1,2.5-1.7c0.8-0.6,1.6-1.2,2.5-1.8c0.8-0.6,1.7-1.2,2.5-1.8
			s1.6-1.3,2.4-1.9c0.8-0.7,1.6-1.3,2.4-2s1.6-1.4,2.4-2.1c0.8-0.7,1.6-1.4,2.3-2.1l2.2-2.2c0.7-0.7,1.5-1.5,2.2-2.2l2.1-2.4
			c0.7-0.8,1.4-1.6,2.1-2.3c0.7-0.8,1.3-1.6,2-2.4c2.7-3.2,5.2-6.5,7.4-9.8c2.2-3.3,4.2-6.6,5.8-9.8c1.6-3.2,3-6.4,4-9.4
			c0.3-0.7,0.5-1.5,0.8-2.2c0.2-0.7,0.4-1.4,0.6-2.1c0.4-1.4,0.8-2.7,1.1-4c0.1-0.6,0.3-1.2,0.4-1.8s0.2-1.2,0.3-1.7
			c0.2-1.1,0.4-2.1,0.5-3C376.8-89.9,377-92,377-92z"/>
	</g>
	<g id="XMLID_433_">
		<path id="XMLID_131_" class="st1" d="M383.7-84.7c0,0-0.3,1.2-0.5,3.3c-0.1,1-0.2,2.3-0.2,3.8s0.2,3.1,0.5,4.9
			c0.3,1.8,0.7,3.7,1.4,5.6c0.6,2,1.6,3.9,2.6,5.9c1.1,2,2.4,3.9,3.9,5.7s3.1,3.6,4.9,5.1c0.2,0.2,0.5,0.4,0.6,0.5l0.7,0.5
			c0.5,0.4,1,0.7,1.5,1s1,0.6,1.5,0.9c0.5,0.3,1,0.5,1.6,0.8c2.1,0.9,4.3,1.6,6.5,2.3c2.2,0.6,4.3,1.4,6.2,2.4
			c1.9,0.9,3.6,2,5.1,3.1c3,2.2,5,4.5,6.4,6.1c0.7,0.8,1.2,1.5,1.5,1.9c0.3,0.5,0.5,0.7,0.5,0.7s-0.8-0.9-2.3-2.4s-3.7-3.5-6.7-5.6
			c-1.5-1-3.2-2-5-2.8c-1.9-0.8-3.9-1.5-6.1-2.1s-4.5-1.2-6.7-2.2c-0.6-0.2-1.1-0.5-1.7-0.8s-1.1-0.6-1.6-0.9c-0.6-0.3-1-0.7-1.5-1
			l-0.7-0.5c-0.3-0.2-0.5-0.4-0.8-0.6c-1.9-1.6-3.6-3.4-5.1-5.3c-1.5-1.9-2.8-3.9-3.9-6c-1.1-2-2-4.2-2.5-6.2c-0.6-2-1-4-1.2-5.8
			s-0.2-3.5-0.2-5c0.1-1.5,0.3-2.8,0.5-3.8s0.4-1.9,0.6-2.4C383.6-84.4,383.7-84.7,383.7-84.7z"/>
	</g>
	<g id="XMLID_413_">
		<path id="XMLID_120_" class="st1" d="M229,114.5c0,0-0.2,0.4-0.6,1.2c-0.4,0.8-1,1.9-1.9,3.2c-1.7,2.8-4,6.7-7.2,11.2
			c-1.6,2.3-3.3,4.7-5.3,7.2c-1.9,2.5-4,5.1-6.2,7.8c-2.3,2.6-4.6,5.3-7.1,7.9s-5,5.3-7.6,8c-2.5,2.7-4.9,5.4-6.6,8.5
			c-1.7,3.1-2.8,6.5-3.4,9.8c-0.5,3.3-0.5,6.6-0.1,9.8c0.4,3.1,1,6,1.8,8.6s1.7,5,2.5,7c0.4,1,0.9,2,1.3,2.9
			c0.4,0.9,0.8,1.7,1.2,2.4c0.7,1.5,1.3,2.5,1.7,3.3s0.6,1.2,0.6,1.2s-0.2-0.4-0.7-1.1c-0.4-0.7-1.1-1.8-1.9-3.2
			c-0.4-0.7-0.8-1.5-1.3-2.3c-0.4-0.9-0.9-1.8-1.4-2.8s-0.9-2.1-1.5-3.3c-0.5-1.2-0.9-2.4-1.4-3.7c-0.9-2.6-1.6-5.6-2.1-8.7
			c-0.4-3.2-0.6-6.6-0.1-10.1s1.6-7,3.4-10.3c1.8-3.3,4.3-6.1,6.8-8.8c2.6-2.6,5.1-5.3,7.7-7.9c2.5-2.6,4.9-5.2,7.2-7.8
			c2.2-2.6,4.4-5.1,6.4-7.6s3.8-4.8,5.4-7c3.3-4.4,5.9-8.2,7.6-10.9C228,116,229,114.5,229,114.5z"/>
	</g>
	<path id="XMLID_412_" class="st27" d="M380-110.5c7,6.4,13.4,8.7,18,9.5c6.1,1.1,8.1-0.4,14.5,1c2,0.5,10.9,2.5,17,9.5
		c9.4,10.9,5.5,26.3,5,28"/>
</g>
<g id="details_skin">
	<g id="XMLID_62_">
		<path id="XMLID_115_" class="st28" d="M282.8,397.7c4.4-0.2,8.9-0.1,13.3,0.2c2.2,0.2,4.4,0.4,6.7,0.8c1.1,0.2,2.2,0.4,3.3,0.6
			c1.1,0.2,2.1,0.3,3.2,0.4c0.6,0,1.1,0.1,1.6,0.1c0.6,0,1.1,0,1.6,0c1.1,0,2.2,0,3.2-0.1c2.2-0.1,4.3-0.3,6.4-0.6
			c2.1-0.4,4.2-0.8,6.3-1.4c2.1-0.6,4.1-1.4,6-2.3l-0.8,1.1c0.1-0.8,0.1-1.5,0.1-2.3c0-0.4-0.1-0.8-0.2-1.1c0-0.2-0.1-0.4-0.1-0.5
			s-0.1-0.4-0.2-0.6c-0.1-0.3-0.3-0.7-0.5-1s-0.4-0.7-0.6-1c-0.5-0.6-1-1.2-1.6-1.7l0.4,0.2c-1.8-0.8-3.6-1.4-5.5-2l-0.7-0.2
			l-0.7-0.2l-1.4-0.4c-1-0.3-1.9-0.5-2.8-0.8s-1.9-0.4-2.8-0.7c-1-0.2-1.9-0.4-2.9-0.6c-1-0.2-1.9-0.3-2.9-0.5
			c-1-0.1-1.9-0.2-2.9-0.3l-2.9-0.2c-1,0-2-0.1-2.9-0.1c-1,0-2-0.1-3,0c-1,0-2,0-3,0c-2,0.1-3.9,0.2-5.9,0.4s-3.9,0.4-5.9,0.7
			c1.9-0.5,3.9-1,5.8-1.4c2-0.4,3.9-0.7,5.9-0.9c2-0.3,4-0.4,6-0.5s4-0.1,6,0c1,0.1,2,0.1,3,0.2c1,0.1,2,0.2,3,0.3s2,0.2,3,0.4
			s2,0.3,3,0.6c1,0.2,2,0.4,3,0.7l1.4,0.4l0.7,0.2l0.7,0.2c1.9,0.6,3.8,1.3,5.7,2.1l0.2,0.1l0.2,0.1c0.8,0.6,1.5,1.4,2.1,2.2
			c0.3,0.4,0.6,0.8,0.8,1.3c0.2,0.5,0.5,0.9,0.7,1.4c0.1,0.3,0.1,0.4,0.2,0.7c0.1,0.2,0.1,0.5,0.2,0.7c0.1,0.5,0.2,1,0.3,1.5
			c0.1,1,0.1,2-0.1,3.1l-0.1,0.8l-0.7,0.3c-2.1,0.9-4.2,1.7-6.4,2.4c-2.2,0.6-4.4,1.1-6.7,1.4c-2.3,0.3-4.5,0.5-6.8,0.5
			c-1.1,0-2.3,0-3.4-0.1c-0.6,0-1.1-0.1-1.7-0.1c-0.5,0-1.1-0.1-1.7-0.2c-1.1-0.1-2.3-0.3-3.4-0.6l-3.2-0.8
			c-2.1-0.5-4.3-0.9-6.5-1.2C291.7,398.6,287.3,398.1,282.8,397.7z"/>
	</g>
	<g id="Layer_22">
		<g id="XMLID_59_">
			<path id="XMLID_111_" class="st28" d="M310.4,401.1c0,0,0.7,0,1.9,0.1c1.2,0,3,0,5.3-0.1c0.6,0,1.2-0.1,1.8-0.2
				c0.6-0.1,1.3-0.2,2-0.3c1.4-0.2,2.8-0.5,4.4-0.8s3.2-0.6,4.9-1.1c0.9-0.3,1.7-0.5,2.6-0.8c0.4-0.2,0.8-0.4,1.2-0.6
				c0.1-0.1,0.1-0.1,0.2-0.2l0,0l0,0l0,0l0.1-0.2c0.1-0.1,0.1-0.2,0.1-0.3s0.1-0.2,0.1-0.3c0.5-1.6-0.2-3.7-1.1-5.4l-0.5-0.7
				c-0.1-0.2-0.3-0.4-0.5-0.6c-0.3-0.3-0.6-0.7-1.1-1l-0.6-0.5l-0.7-0.4c-0.4-0.3-0.9-0.5-1.4-0.8c-2-0.9-4.2-1.6-6.4-2.1
				c-2.3-0.5-4.7-0.9-7.1-1.1c-2.4-0.3-4.9-0.5-7.4-0.8c-1.3-0.1-2.5-0.2-3.9-0.4c-1.3-0.2-2.5-0.4-3.7-0.4c-0.6,0-1.3,0-2.1-0.1
				c-0.2,0-0.4-0.1-0.7-0.2c-0.3-0.1-0.6-0.3-0.8-0.6c-0.3-0.3-0.3-0.8-0.3-1.1c0-0.2,0-0.3,0.1-0.4l0.1-0.2v-0.1c0,0,0-0.1,0.1-0.1
				c0.1-0.1,0.2-0.3,0.3-0.4l0.2-0.3c0.2-0.1,0.3-0.3,0.5-0.4c0.3-0.2,0.6-0.4,1-0.6c0.7-0.3,1.3-0.6,2-0.8c2.7-0.8,5.4-1,8.1-1.1
				c5.4-0.1,10.7,0.7,15.8,2c1.3,0.3,2.5,0.7,3.8,1c0.5,0.1,1.2,0.3,1.9,0.5c0.6,0.2,1.3,0.4,1.9,0.7c1.2,0.5,2.4,1.2,3.4,2
				s2.1,1.6,3,2.6s1.6,2.2,2,3.6c0.3,1.3,0.3,2.5,0.4,3.7c0,1.2,0.1,2.4,0.1,3.5c0,1.2,0.1,2.3,0,3.6c-0.3,2.4-1.3,4.6-2.5,6.3
				c-0.6,0.9-1.3,1.7-1.9,2.5s-1.3,1.6-2,2.3c-1.4,1.4-3,2.6-4.5,3.6s-2.9,1.9-4.2,2.8c-2.6,1.8-4.9,3.5-6.6,4.9
				c-3.6,2.9-5.5,4.7-5.5,4.7s0.5-0.5,1.3-1.3c0.9-0.9,2.2-2.1,3.9-3.6c1.7-1.5,3.9-3.3,6.5-5.2c1.3-0.9,2.7-2,4.1-3
				c1.4-1.1,2.9-2.2,4.2-3.6c2.4-2.9,5.4-6.3,5.8-10.6c0.1-1,0-2.2-0.1-3.3c-0.1-1.2-0.2-2.3-0.2-3.5c-0.1-1.2-0.2-2.4-0.4-3.4
				c-0.3-1-0.9-2-1.6-2.8s-1.7-1.6-2.7-2.3s-2-1.3-3.1-1.8c-0.6-0.2-1.1-0.5-1.7-0.6c-0.6-0.2-1.1-0.3-1.8-0.5
				c-1.2-0.4-2.4-0.7-3.7-1c-5-1.2-10.1-1.9-15.3-1.8c-2.6,0-5.2,0.2-7.5,0.9c-0.6,0.2-1.1,0.4-1.7,0.7c-0.3,0.1-0.5,0.3-0.7,0.4
				c-0.1,0.1-0.2,0.2-0.3,0.2l-0.1,0.1l0,0v0.1v0.1c0,0,0-0.1,0,0l0,0c0,0,0-0.1-0.1-0.2c-0.1-0.1-0.1-0.1,0,0c0.1,0,0.2,0,0.3,0.1
				c0.5,0.1,1.1,0.1,1.8,0.1c1.4,0,2.8,0.2,4,0.4s2.5,0.3,3.8,0.4c2.5,0.3,5,0.5,7.5,0.8s4.9,0.7,7.2,1.3c2.3,0.6,4.6,1.3,6.7,2.4
				c0.5,0.3,1,0.5,1.5,0.9c0.2,0.2,0.5,0.3,0.7,0.5l0.7,0.6c0.5,0.3,0.8,0.8,1.2,1.3c0.2,0.2,0.4,0.4,0.5,0.7l0.4,0.7
				c0.6,1.1,1,2,1.2,3.1s0.3,2.2-0.1,3.3c-0.1,0.2-0.3,0.6-0.4,0.8l-0.1,0.2l0,0l-0.1,0.1l-0.1,0.1c-0.1,0.1-0.3,0.2-0.4,0.3
				c-0.5,0.3-0.9,0.5-1.4,0.7c-0.9,0.3-1.8,0.6-2.7,0.8c-1.8,0.4-3.5,0.7-5.1,0.9s-3.1,0.4-4.5,0.6c-0.7,0.1-1.3,0.2-2,0.3
				c-0.6,0.1-1.2,0.1-1.8,0.1c-2.3,0.1-4.1,0-5.4-0.1C311,401.2,310.4,401.1,310.4,401.1z"/>
		</g>
	</g>
	<g id="Layer_23">
		<g id="XMLID_406_">
			<path id="XMLID_107_" class="st28" d="M339.2,394.8c0,0,0.1,0.2,0.4,0.6c0.3,0.3,0.8,0.8,1.6,0.9c0.4,0,0.9,0.1,1.4,0.2
				c0.5,0.1,1,0.1,1.7,0.3c1.3,0.3,2.4,1.3,3.4,2.5s1.6,2.9,1.9,4.6c0.3,1.7,0.2,3.7-0.2,5.5c-0.3,0.9-0.5,1.8-0.9,2.8
				c-0.4,0.9-0.9,1.8-1.3,2.6c-1,1.7-1.9,3.4-3,5c-0.6,0.8-1.1,1.6-1.8,2.4c-0.6,0.7-1.3,1.4-1.9,2.2c-0.6,0.7-1.3,1.4-1.9,2.1
				l-0.5,0.5l-0.5,0.5c-0.3,0.3-0.6,0.7-1,1c-1.3,1.3-2.5,2.5-3.7,3.7c-1.1,1.2-2.2,2.3-3.2,3.4c-1,1.1-1.8,2.1-2.4,3
				c-0.6,1-1,1.9-1.4,2.7c-0.6,1.6-0.9,2.5-0.9,2.5s0-0.2,0.1-0.7s0.2-1.1,0.4-1.9c0.2-0.8,0.5-1.8,1.1-2.9c0.6-1.1,1.3-2.2,2.2-3.4
				c1.8-2.3,4-4.9,6.5-7.6c0.3-0.3,0.6-0.7,0.9-1l0.4-0.5l0.5-0.5c0.6-0.7,1.2-1.4,1.8-2.2c0.6-0.7,1.3-1.4,1.9-2.2
				c0.5-0.7,1.1-1.5,1.6-2.3c1.1-1.6,2.1-3.2,3-4.8c0.5-0.8,0.9-1.6,1.3-2.4c0.4-0.8,0.7-1.7,0.9-2.5c0.5-1.6,0.7-3.3,0.5-4.9
				c-0.2-1.6-0.6-3-1.3-4.1c-0.8-1.1-1.7-2-2.7-2.4c-0.5-0.2-1.1-0.3-1.6-0.5c-0.5-0.1-0.9-0.2-1.4-0.3c-0.9-0.2-1.4-0.8-1.6-1.2
				C339.2,395.1,339.2,394.8,339.2,394.8z"/>
		</g>
		<g id="XMLID_403_">
			<path id="XMLID_105_" class="st28" d="M344.9,416.3c0,0,0.1-0.2,0.3-0.6c0.2-0.4,0.5-0.9,1.2-1.3c0.3-0.2,0.7-0.5,1.2-0.6
				s1.1-0.1,1.6,0c0.6,0.2,1.1,0.4,1.6,0.8c0.6,0.4,1,1,1.3,1.6c0.7,1.2,1.1,2.7,1.1,4.3c0.1,1.6-0.2,3.2-0.7,4.8
				c-0.2,0.8-0.5,1.6-0.9,2.4c-0.2,0.4-0.3,0.8-0.5,1.2s-0.4,0.8-0.6,1.2c-0.9,1.5-1.9,3-3,4.3s-2.2,2.6-3.4,3.9
				c-1.1,1.3-2.3,2.4-3.5,3.6c-1.2,1.1-2.3,2.2-3.5,3.1c-1.2,0.9-2.3,1.7-3.3,2.5c-0.5,0.3-0.9,0.8-1.4,1.2
				c-0.4,0.4-0.8,0.8-1.2,1.1c-0.7,0.7-1.3,1.4-1.8,2c-1,1.1-1.5,1.8-1.5,1.8s0.4-0.8,1.2-2c0.4-0.6,0.9-1.4,1.6-2.2
				c0.3-0.4,0.7-0.9,1.1-1.3c0.4-0.4,0.8-0.9,1.3-1.4c0.9-0.9,2-1.8,3.1-2.8s2.1-2.1,3.2-3.2c1.1-1.1,2.2-2.4,3.3-3.6
				c1.1-1.2,2.2-2.6,3.3-3.9c1.1-1.3,2.1-2.6,2.9-4s1.5-2.9,2-4.3c0.5-1.4,0.8-2.9,0.8-4.3c0-1.4-0.2-2.7-0.7-3.8
				c-0.2-0.5-0.5-1-0.9-1.3s-0.8-0.6-1.3-0.8c-0.9-0.4-1.7-0.2-2.3,0.2c-0.6,0.4-1,0.8-1.3,1.1C345,416.1,344.9,416.3,344.9,416.3z"
				/>
		</g>
	</g>
	<g id="Layer_24">
		<g id="XMLID_65_">
			<path id="XMLID_103_" class="st28" d="M343.1,438.3c0,0,0.3-0.3,0.9-0.9c0.6-0.6,1.3-1.6,2.2-2.8c0.4-0.6,0.9-1.3,1.4-2.1
				c0.2-0.4,0.4-0.8,0.6-1.3c0.1-0.2,0.2-0.5,0.3-0.7c0.1-0.1,0.1-0.2,0.2-0.4c0-0.1,0.1-0.1,0.1-0.2l0.1-0.1c0,0,0.1-0.1,0.2-0.1
				h0.1c0.1,0,0,0,0.2,0l0,0c0.1,0,0.1,0.1,0.1,0.1c0.1,0.1,0.1,0.1,0.1,0.2c0,0.1,0,0.1,0,0.2v0.2c0,0.1,0,0.3,0,0.4
				c0,0.2,0.1,0.5,0.2,0.7c0.2,0.4,0.6,0.7,1.1,1c0.3,0.2,0.5,0.2,0.9,0.6c0.2,0.2,0.5,0.7,0.6,1c0.2,0.7,0.2,1.4,0.2,2.1
				c-0.1,2.8-1.2,5.6-2.6,8.4c-1.5,2.8-3.5,5.4-6,7.8c-2.4,2.4-5.3,4.4-8.1,6.4c-1.4,1-2.9,2.2-4.7,2.9c-1.7,0.7-3.6,1.1-5.5,1.2
				c-1.9,0.1-3.7-0.1-5.5-0.3s-3.6-0.5-5.3-0.9c-3.5-0.8-6.7-1.9-9.9-2.7c-3.2-0.8-6.3-1.3-9.3-1.5c-3-0.1-5.8,0-8.5,0.3
				c-2.6,0.3-5.1,0.6-7.2,0.8c-2.1,0.3-4,0.6-5.5,0.8c-3.1,0.5-4.8,0.9-4.8,0.9s0.4-0.1,1.2-0.4c0.8-0.2,2-0.6,3.5-0.9
				c3-0.7,7.4-1.6,12.7-2.4c2.6-0.4,5.6-0.7,8.7-0.7c3.1,0.1,6.4,0.5,9.7,1.3c3.3,0.8,6.6,1.8,9.9,2.5c1.7,0.4,3.4,0.7,5.1,0.8
				c1.8,0.2,3.5,0.3,5.1,0.2c1.7-0.1,3.3-0.4,4.9-1.1c1.5-0.6,2.9-1.6,4.3-2.6c1.4-1.1,2.9-2,4.2-3c1.4-1,2.7-2,3.8-3.1
				c2.4-2.2,4.4-4.6,5.9-7.2c1.4-2.6,2.5-5.3,2.8-7.8c0-0.6,0-1.2-0.1-1.7c0-0.1-0.1-0.3-0.1-0.3c0-0.1-0.1-0.2-0.2-0.3
				s-0.4-0.3-0.6-0.4c-0.5-0.3-1.1-0.8-1.4-1.4c-0.2-0.3-0.2-0.6-0.2-1c0-0.2,0-0.3,0-0.4v-0.2l0,0c0,0,0,0,0,0.1l0.1,0.1l0,0
				c0.2,0.1,0.2,0,0.2,0s0,0,0.1,0l0,0l-0.1,0.1c-0.1,0.1-0.1,0.2-0.2,0.3c-0.1,0.2-0.2,0.5-0.4,0.7c-0.2,0.5-0.5,0.9-0.7,1.3
				c-0.5,0.8-1.1,1.5-1.5,2.1c-1,1.2-1.8,2.1-2.4,2.7C343.4,438,343.1,438.3,343.1,438.3z"/>
		</g>
	</g>
	<g id="Layer_29">
		<g id="XMLID_397_">
			<path id="XMLID_101_" class="st28" d="M375,454.8c0,0-0.4-0.1-1.2-0.3c-0.8-0.2-1.8-0.5-3.2-0.8c-1.3-0.3-2.8-0.7-4.4-1.2
				c-0.8-0.2-1.6-0.4-2.5-0.6c-0.8-0.2-1.7-0.4-2.6-0.6c-0.9-0.2-1.7-0.4-2.6-0.6c-0.9-0.2-1.7-0.4-2.5-0.5
				c-1.6-0.3-3.2-0.6-4.5-0.9c-1.3-0.3-2.4-0.5-3.2-0.6c-0.8-0.2-1.2-0.3-1.2-0.3s1.8-0.3,4.5-0.2c1.4,0,3,0.1,4.6,0.3
				c0.8,0.1,1.7,0.2,2.6,0.4s1.8,0.3,2.7,0.5c1.8,0.4,3.5,0.9,5.1,1.5s3.1,1.2,4.3,1.8c1.2,0.6,2.2,1.1,2.9,1.5
				C374.6,454.5,375,454.8,375,454.8z"/>
		</g>
		<path id="XMLID_393_" class="st29" d="M331.7,458.7"/>
		<path id="XMLID_392_" class="st29" d="M330.3,456.2"/>
		<g id="XMLID_388_">
			<path id="XMLID_99_" class="st28" d="M332.3,459.8c0,0,0.3,0.1,0.7,0.3c0.4,0.2,0.9,0.5,1.4,0.8s0.9,0.7,1.3,1s0.6,0.6,0.6,0.6
				s-0.3,0.1-0.8,0s-1.1-0.3-1.6-0.7s-1-0.8-1.2-1.2C332.4,460.1,332.3,459.8,332.3,459.8z"/>
		</g>
	</g>
	<g id="aiai">
		<path id="XMLID_36_" class="st29" d="M270,461.3"/>
		<g id="XMLID_95_">
			<path id="XMLID_97_" class="st28" d="M282.7,457.5c0,0,0,0.2,0,0.7c0,0.4,0.1,1.1,0.3,1.9c0.2,0.8,0.5,1.7,1.1,2.6
				c0.1,0.2,0.3,0.5,0.5,0.8c0.1,0.3,0.4,0.5,0.6,0.7s0.4,0.5,0.6,0.7s0.5,0.4,0.7,0.6c0.2,0.2,0.5,0.4,0.8,0.6
				c0.3,0.2,0.6,0.4,0.9,0.6c0.7,0.3,1.3,0.7,2,1s1.5,0.6,2.3,0.9c0.8,0.3,1.6,0.5,2.4,0.8c1.7,0.5,3.4,0.9,5.2,1.4
				c1.8,0.5,3.6,1,5.4,1.4c1.8,0.5,3.6,1.1,5.4,1.6c0.9,0.3,1.8,0.6,2.6,0.9c0.9,0.3,1.7,0.6,2.5,0.9c3.3,1.2,6.3,2.6,8.8,3.9
				c2.5,1.3,4.5,2.5,5.9,3.4s2.2,1.4,2.2,1.4s-0.9-0.4-2.3-1.1c-1.5-0.7-3.6-1.6-6.2-2.7c-1.3-0.5-2.7-1.1-4.2-1.6
				c-1.5-0.6-3.1-1.1-4.7-1.7c-1.6-0.6-3.4-1.1-5.1-1.6s-3.5-1.1-5.3-1.6c-3.6-1-7.2-2-10.6-3.1c-0.8-0.3-1.7-0.6-2.5-0.9
				c-0.8-0.3-1.6-0.7-2.3-1.1c-0.7-0.3-1.4-0.8-2.1-1.2c-0.3-0.2-0.6-0.5-0.9-0.7s-0.6-0.5-0.8-0.7c-0.3-0.3-0.5-0.5-0.8-0.8
				c-0.2-0.3-0.4-0.6-0.6-0.9c-0.4-0.6-0.7-1.1-0.9-1.6c-0.5-1.1-0.7-2.1-0.8-2.9c-0.1-0.8-0.1-1.5,0-1.9
				C282.6,457.7,282.7,457.5,282.7,457.5z"/>
		</g>
		<g id="XMLID_96_">
			<path id="XMLID_93_" class="st28" d="M330.3,460.8c0,0,0.4,0,1,0c0.3,0,0.6,0.1,0.9,0.2c0.2,0,0.3,0.1,0.5,0.1l0.5,0.2
				c0.7,0.2,1.4,0.4,1.9,0.7c0.5,0.2,0.8,0.5,0.8,0.5s-0.4,0.1-1,0.1s-1.3-0.1-2-0.3c-0.3-0.1-0.4-0.1-0.6-0.2
				c-0.2-0.1-0.3-0.2-0.5-0.2c-0.3-0.2-0.6-0.3-0.8-0.5C330.6,461.1,330.3,460.8,330.3,460.8z"/>
		</g>
	</g>
	<g id="Layer_25">
	</g>
	<g id="Layer_26">
		<g id="XMLID_378_">
			<path id="XMLID_91_" class="st28" d="M282.8,459.7c0,0,0.1,0.3,0.2,0.8c0.1,0.3,0.1,0.6,0.2,1c0,0.4,0.1,0.9-0.3,1.4
				c-0.2,0.3-0.4,0.4-0.7,0.6c-0.3,0.1-0.7,0.1-0.9,0.1c-0.6,0.1-1.2,0.3-1.8,0.5c-1.3,0.4-1.6,2-1.7,3.5c0,0.2,0,0.4,0,0.6v0.3v0.3
				c0.1,0.4,0.2,0.8,0.3,1.2c0.3,0.8,0.8,1.5,1.4,2.2c1.2,1.5,2.7,2.9,4.2,4.4s3.2,3,4.9,4.2c1.8,1.3,3.7,2.6,5.6,4
				c1.9,1.3,3.7,2.7,5.6,4c0.5,0.3,0.9,0.7,1.4,1c0.2,0.2,0.5,0.4,0.7,0.5l0.7,0.4c0.9,0.6,1.9,1.2,2.8,1.8c3.6,2.4,6.9,4.6,9.7,6.7
				c2.8,2,5.1,3.8,6.7,5s2.5,1.9,2.5,1.9s-1-0.6-2.7-1.6s-4.2-2.5-7.1-4.3s-6.4-3.9-10-6.1c-0.9-0.6-1.9-1.1-2.8-1.7L301,492
				c-0.3-0.2-0.5-0.3-0.7-0.5c-0.5-0.3-0.9-0.6-1.4-1c-1.8-1.3-3.7-2.6-5.6-4c-1.9-1.3-3.7-2.7-5.6-4c-2-1.4-3.5-3-5.1-4.5
				c-1.5-1.6-2.9-3.1-4.2-4.7c-0.6-0.8-1.2-1.7-1.5-2.7c-0.2-0.5-0.3-1-0.3-1.5v-0.3v-0.4c0-0.2,0-0.5,0-0.7
				c0.1-0.9,0.3-1.8,0.7-2.6c0.2-0.4,0.5-0.8,0.8-1.1l0.3-0.2l0.2-0.1c0.2-0.1,0.4-0.1,0.6-0.2c0.7-0.2,1.4-0.3,2-0.4
				c0.4,0,0.6,0,0.8,0c0.2,0,0.4-0.2,0.5-0.3c0.3-0.3,0.3-0.8,0.3-1.2s0-0.7,0-1C282.8,459.9,282.8,459.7,282.8,459.7z"/>
		</g>
	</g>
	<g id="Layer_27">
		<g id="XMLID_70_">
			<path id="XMLID_89_" class="st28" d="M291.2,483.6c0,0-0.2-0.2-0.5-0.5s-0.9-0.7-1.7-0.8c-0.4,0-0.8,0.1-1.1,0.4
				c-0.3,0.3-0.6,0.8-0.8,1.3c0,0.1-0.1,0.3-0.1,0.4c0,0.1,0,0.3,0,0.4c0,0.3,0,0.6,0,0.9c0.1,0.6,0.3,1.3,0.5,1.9
				c0.5,1.3,1.4,2.6,2.3,4c1,1.3,2.1,2.7,3.3,4c1.2,1.3,2.6,2.5,4.1,3.8c1.5,1.2,3,2.5,4.5,3.7c1.5,1.3,3,2.5,4.5,3.8
				c1.5,1.2,2.9,2.5,4.4,3.6c1.4,1.1,2.8,2.2,4.2,3.2c1.4,1,2.7,1.9,3.9,2.7c2.4,1.6,4.5,3,6,3.9s2.3,1.5,2.3,1.5s-0.9-0.4-2.5-1.1
				c-1.6-0.7-3.8-1.8-6.4-3.3c-1.3-0.7-2.7-1.5-4.1-2.4s-3-1.9-4.5-3s-3-2.3-4.5-3.5s-3-2.5-4.6-3.7c-1.5-1.3-3-2.5-4.5-3.8
				c-1.5-1.2-2.9-2.6-4.2-4.1c-1.3-1.4-2.3-2.9-3.3-4.4c-0.9-1.5-1.7-2.9-2.2-4.4c-0.2-0.7-0.4-1.5-0.4-2.2s0.1-1.5,0.4-2
				c0.3-0.6,0.6-1.1,1.1-1.5c0.5-0.3,1.1-0.4,1.6-0.3c0.9,0.2,1.4,0.8,1.7,1.1C291,483.4,291.2,483.6,291.2,483.6z"/>
		</g>
	</g>
	<g id="Layer_28">
		<g id="XMLID_372_">
			<path id="XMLID_87_" class="st28" d="M299,501.7c0,0-0.2,0-0.5,0.2c-0.2,0.1-0.3,0.2-0.4,0.5c-0.1,0.2-0.2,0.5-0.2,0.8
				c-0.1,0.6,0.1,1.4,0.4,2.3c0.1,0.4,0.3,0.9,0.5,1.4s0.4,1,0.7,1.5c0.3,0.5,0.5,1,0.9,1.5c0.2,0.3,0.4,0.5,0.5,0.8
				c0.2,0.2,0.4,0.5,0.6,0.8c0.8,1,1.8,2,2.8,3s2.2,1.9,3.3,2.9c1.2,0.9,2.4,1.9,3.7,2.6c1.3,0.8,2.6,1.6,3.9,2.4
				c1.3,0.7,2.6,1.4,3.9,2.1c2.6,1.3,5.1,2.4,7.2,3.3c1.1,0.4,2.1,0.8,3,1.2c0.9,0.3,1.7,0.6,2.3,0.9c1.3,0.5,2,0.7,2,0.7
				s-0.8-0.1-2.1-0.3c-0.7-0.1-1.5-0.3-2.4-0.5s-2-0.5-3.1-0.8s-2.4-0.7-3.6-1.2c-1.3-0.5-2.6-1-4-1.6c-1.3-0.6-2.7-1.2-4.1-2
				c-1.4-0.7-2.8-1.5-4.1-2.4c-1.4-0.9-2.6-1.8-3.8-2.8c-1.2-1-2.3-2.1-3.4-3.1c-1-1.1-2-2.2-2.7-3.4c-0.8-1.1-1.4-2.3-1.9-3.4
				c-0.2-0.6-0.4-1.1-0.6-1.6c-0.2-0.6-0.3-1-0.4-1.5c-0.2-1-0.2-1.9,0-2.6c0.1-0.4,0.3-0.7,0.4-0.9c0.2-0.2,0.4-0.3,0.6-0.4
				C298.8,501.7,299,501.7,299,501.7z"/>
		</g>
	</g>
</g>
<g id="hand_deets">
	<g id="XMLID_366_">
		<path id="XMLID_85_" class="st28" d="M295.5,426.6c1.1,0.2,2.2,0.4,3.3,0.7c1.1,0.3,2.2,0.6,3.2,0.9h-0.1c0.6,0,1.3,0,1.9-0.1
			l0.5-0.1c0.2,0,0.3-0.1,0.5-0.1c0.3-0.1,0.6-0.1,0.9-0.2c1.2-0.3,2.4-0.9,3.6-1.6c-0.9,1-2,1.8-3.3,2.3c-0.3,0.1-0.6,0.2-1,0.3
			c-0.2,0-0.3,0.1-0.5,0.1s-0.3,0.1-0.5,0.1c-0.7,0.1-1.4,0.2-2.1,0.1h-0.1h-0.1c-1.1-0.4-2.1-0.7-3.1-1.2
			C297.5,427.6,296.5,427.2,295.5,426.6z"/>
	</g>
	<g id="XMLID_363_">
		<path id="XMLID_83_" class="st28" d="M313.8,447.6c0.8-0.2,1.5-0.4,2.3-0.5s1.5-0.2,2.3-0.3h-0.1c0.4-0.2,0.8-0.3,1.2-0.5
			c0.1,0,0.2-0.1,0.3-0.1l0.3-0.1c0.2-0.1,0.4-0.2,0.6-0.3c0.8-0.4,1.5-1,2.2-1.6c-0.4,0.9-1,1.6-1.7,2.2c-0.2,0.2-0.4,0.3-0.6,0.4
			l-0.3,0.2c-0.1,0.1-0.2,0.1-0.3,0.2c-0.4,0.2-0.9,0.4-1.3,0.5l0,0h-0.1c-0.8,0-1.5,0.1-2.3,0C315.3,447.7,314.6,447.7,313.8,447.6
			z"/>
	</g>
	<g id="XMLID_360_">
		<path id="XMLID_80_" class="st28" d="M320.7,456.2c1-0.2,1.9-0.1,2.8-0.1h-0.1c0.1,0,0.2-0.1,0.3-0.1c0,0,0.1,0,0.1-0.1l0.2-0.1
			h0.1v0.1v0.1l0,0c-0.1,0,0-0.1,0-0.1l0,0l0,0l0,0l0.2-0.1c0.1-0.1,0.2-0.1,0.3-0.2c0.4-0.3,0.9-0.5,1.4-0.6
			c-0.3,0.4-0.7,0.8-1.1,1.1c-0.1,0.1-0.2,0.2-0.3,0.2l-0.2,0.1l0,0l0,0l0,0l0,0h-0.1l-0.2,0.1c-0.1,0-0.1,0.1-0.2,0.1
			c-0.1,0.1-0.3,0.1-0.4,0.1h-0.1h-0.1C322.5,456.7,321.6,456.6,320.7,456.2z"/>
	</g>
	<g id="XMLID_357_">
		<path id="XMLID_78_" class="st28" d="M337.5,485.6c1.1,0.2,2.2,0.4,3.3,0.7c1.1,0.3,2.2,0.6,3.2,0.9h-0.1c0.6,0,1.3,0,1.9-0.1
			l0.5-0.1c0.2,0,0.3-0.1,0.5-0.1c0.3-0.1,0.6-0.1,0.9-0.2c1.2-0.3,2.4-0.9,3.6-1.6c-0.9,1-2,1.8-3.3,2.3c-0.3,0.1-0.6,0.2-1,0.3
			c-0.2,0-0.3,0.1-0.5,0.1s-0.3,0.1-0.5,0.1c-0.7,0.1-1.4,0.2-2.1,0.1h-0.1h-0.1c-1.1-0.4-2.1-0.7-3.1-1.2
			C339.5,486.6,338.5,486.2,337.5,485.6z"/>
	</g>
	<g id="XMLID_354_">
		<path id="XMLID_75_" class="st28" d="M329.9,506.9c0.8,0.2,1.5,0.5,2.2,0.8s1.4,0.6,2.1,1h-0.1c0.4,0.1,0.8,0.1,1.3,0.2
			c0.1,0,0.2,0,0.3,0.1h0.3c0.2,0,0.4,0,0.6,0c0.9,0,1.7,0,2.7-0.2c-0.8,0.5-1.7,0.9-2.6,1c-0.2,0-0.5,0-0.7,0.1h-0.4
			c-0.1,0-0.2,0-0.4,0c-0.5-0.1-1-0.1-1.4-0.2l0,0h-0.1c-0.7-0.4-1.3-0.8-2-1.2C331.1,507.9,330.5,507.4,329.9,506.9z"/>
	</g>
	<g id="XMLID_351_">
		<path id="XMLID_73_" class="st28" d="M329.9,521.9c0.9,0.3,1.8,0.7,2.6,1.2l-0.1-0.1c0.1,0,0.2,0,0.3,0c0,0,0.1-0.1,0.2-0.1h0.2
			h0.1l0,0l0,0l0,0c-0.1,0,0,0,0,0l0,0l0,0v0.1h0.2c0.1,0,0.3,0,0.4,0c0.5,0,1,0,1.6,0.1c-0.5,0.2-1,0.4-1.5,0.5
			c-0.1,0-0.3,0.1-0.4,0.1h-0.2l0,0l0,0h-0.1l0,0h-0.1h-0.2c-0.1,0-0.1,0-0.2,0s-0.3,0-0.4-0.1h-0.1h-0.1
			C331.2,523.2,330.5,522.6,329.9,521.9z"/>
	</g>
</g>
<g id="shirt">
	<path id="XMLID_33_" class="st22" d="M335.7,214c-2.5,3.6,7.8,11.9,25.3,36c11.9,16.3,16.4,25.1,20.3,24c3.6-1,2.1-9.3,5-23
		c5.2-25,18.1-36.8,14.3-40.7c-3.2-3.3-11.7,6-28.7,8C351.4,220.7,338.5,210,335.7,214z"/>
	<path id="XMLID_117_" class="st21" d="M352.8,217.1c-2,0.9,14.8,53.9,24.5,52.4c9.3-1.4,10.1-54.1,8-54.4
		c-0.9-0.1-3.1,8.7-3.8,11.1c0,0.1,0,0.1-0.1,0.5c-0.4,1.6-1.9,7.4-2.5,9.5c-0.7,2.1-2,5.2-4.9,8.9c-2.1-1.5-5.1-3.8-7.8-7.4
		c-2.1-2.8-2.9-4.7-4.6-7.9C358.6,224.3,353.6,216.7,352.8,217.1z"/>
	<path id="XMLID_159_" class="st30" d="M355.7,175c-2.5,3.6,7.8,11.9,25.3,36c11.9,16.3,16.4,25.1,20.3,24c3.6-1,2.1-9.3,5-23
		c5.2-25,18.1-36.8,14.3-40.7c-3.2-3.3-11.7,6-28.7,8C371.4,181.7,358.5,171,355.7,175z"/>
	<path id="XMLID_134_" class="st31" d="M372.8,178.1c-2,0.9,14.8,53.9,24.5,52.4c9.3-1.4,10.1-54.1,8-54.4
		c-0.9-0.1-3.1,8.7-3.8,11.1c0,0.1,0,0.1-0.1,0.5c-0.4,1.6-1.9,7.4-2.5,9.5c-0.7,2.1-2,5.2-4.9,8.9c-2.1-1.5-5.1-3.8-7.8-7.4
		c-2.1-2.8-2.9-4.7-4.6-7.9C378.6,185.3,373.6,177.7,372.8,178.1z"/>
</g>
<g id="hair_over_face">
	<path id="XMLID_348_" class="st1" d="M379.6-74.1c-0.1,0.2-0.9-0.3-2.1-0.1c-0.6,0.1-1.2,0.4-2.6,1.5c-1.1,0.9-1.6,1.4-2.4,2.4
		s-1.5,1.6-1.7,1.8c-1.3,1.4-3.5,4.2-5.6,6.9c-1.2,1.7-2.1,3-2.6,3.7c-7.9,11.6-9,13.5-11.8,17.3c-0.6,0.8-0.1,0.1-6.3,8.2
		c-6.2,8-7.1,9.2-8.5,11c-1.9,2.4-7.2,9.2-14.3,16.2c-3.5,3.5-17.6,17.5-27.2,18.7c-2.9,0.4-5.8,1.2-8.7,1.2c-2.4,0-4.2-0.4-5.5,0.8
		c-1.4,1.2-1.5,3.5-1.5,3.9c-0.1,1.8,0.6,3.1,0.4,3.2c-0.2,0.1-1-3.2-2.9-5.9c-2.3-3.3-6.2-5.9-10.1-6.4c-5.4-0.8-10.6,3.1-10.8,2.6
		c-0.1-0.2,0.5-0.6,0.5-0.6c3.9-3,23.3-37.9,50.9-58.9c0,0,21.2-15.8,55.2-25.6c0.1,0,1.9-0.5,4.4-1.3c1.9-0.6,1.8-0.5,2.6-0.8
		c1.7-0.5,4-1.1,6.3-1.3c0.5,0,1.1-0.1,1.9,0.1C378.6-75.1,379.7-74.3,379.6-74.1z"/>
</g>
<g id="hair_stroke_over_skin">
	<g id="XMLID_8_">
		<path id="XMLID_66_" class="st1" d="M271.3,11.1c0,0,0.6,0.1,1.6,0.4c0.5,0.1,1.2,0.3,1.9,0.4c0.8,0.2,1.6,0.4,2.6,0.5
			c2,0.3,4.4,0.6,7.1,0.7c2.8,0.1,5.9-0.2,9.2-0.9c1.6-0.3,3.3-0.8,5-1.5c0.4-0.2,0.9-0.4,1.3-0.5c0.4-0.2,0.8-0.4,1.2-0.6
			c0.8-0.4,1.6-0.9,2.4-1.4c3.2-2,6.3-4.8,9.5-7.6c3.2-2.9,6.4-5.9,9.6-9s6.3-6.5,9.2-9.9c1.5-1.7,3-3.4,4.4-5.2l1.1-1.3l1-1.4
			c0.7-0.9,1.4-1.8,2.1-2.7s1.4-1.8,2-2.7l1-1.3l0.3-0.3l0.2-0.3l0.5-0.7c1.3-1.8,2.6-3.6,3.8-5.3c0.3-0.4,0.6-0.9,0.9-1.3l0.4-0.6
			l0.4-0.7c0.6-0.9,1.2-1.7,1.8-2.6c0.3-0.4,0.6-0.9,0.9-1.3c0.3-0.4,0.6-0.8,0.8-1.2c0.6-0.8,1.1-1.7,1.6-2.5
			c1.1-1.6,2.1-3.2,3.1-4.8s2-3,3-4.5c4-5.7,8-9.9,11.1-12.5c1.6-1.3,3-2,4-2.5s1.5-0.7,1.5-0.7s-0.5,0.3-1.4,0.9
			c-0.9,0.6-2.2,1.5-3.6,2.8c-1.4,1.4-3,3.2-4.7,5.4s-3.5,4.8-5.3,7.6c-0.9,1.4-1.8,3-2.7,4.6c-1,1.6-1.9,3.2-3,4.9
			c-0.5,0.8-1,1.7-1.5,2.6c-0.3,0.4-0.5,0.9-0.8,1.3c-0.3,0.4-0.5,0.9-0.8,1.3c-0.6,0.9-1.1,1.8-1.7,2.6l-0.4,0.7l-0.5,0.7
			c-0.3,0.4-0.6,0.9-0.9,1.3c-1.2,1.8-2.4,3.6-3.7,5.4l-0.5,0.7l-0.3,0.4l-0.2,0.3l-1,1.3c-0.7,0.9-1.3,1.8-2,2.7s-1.4,1.8-2,2.7
			l-1,1.4l-1.1,1.4c-1.4,1.8-2.9,3.6-4.4,5.3c-3,3.5-6.2,6.8-9.5,10c-1.6,1.6-3.3,3.1-5,4.6s-3.3,2.9-4.9,4.3
			c-3.3,2.8-6.5,5.5-10.1,7.5c-0.9,0.5-1.8,1-2.7,1.4c-0.4,0.2-0.9,0.4-1.4,0.6c-0.5,0.2-0.9,0.3-1.3,0.5c-1.9,0.6-3.6,1-5.4,1.3
			c-3.5,0.6-6.7,0.6-9.5,0.3c-2.8-0.2-5.2-0.7-7.2-1.2c-1-0.2-1.8-0.5-2.6-0.7c-0.8-0.2-1.4-0.4-1.9-0.6
			C271.8,11.3,271.3,11.1,271.3,11.1z"/>
	</g>
</g>
<g id="mangas_x3F_">
	<path id="XMLID_344_" class="st32" d="M441.8,458.1c4-2.5,7.3-4.5,10.1-6.3l0,0c4.1-2.4,6.2-3.7,7.8-5.2c0.8-0.7,0.9-0.9,2.4-2.3
		c1-0.9,1.8-1.6,2-1.8c3.2-2.7,5-5,5.9-5.3c6-1.8,24.6,12.1,36,33.7c4.4,8.3,10.9,23.6,11,45.6c-2.8,3.5-5.7,7-8.5,10.5
		c-4.4,5.4-8.8,10.8-13.2,16.2c-4.3-13.4-8.6-24.5-12.2-32.8c-7.9-18.7-12.9-26.3-15.7-30.2c-6-8.4-12.1-14.5-16.7-18.5
		C447.8,460.6,444.8,459.3,441.8,458.1z"/>
	<path id="XMLID_343_" class="st32" d="M198,419.3c-4.8-0.8-11.1-2.3-18-5.3c-6.2-2.7-11.1-5.8-14.8-8.5c-7.3,6.7-18.7,18.8-27.3,37
		c-8.3,17.7-10.4,33.7-11,43.5c4,3.7,9.9,8.4,17.8,12.5c8.1,4.2,15.5,6.2,21,7.3c-1.4-13.8-0.3-25.1,1-32.8
		c1.8-10.6,3.7-22.2,11.8-34.5C185.2,428.7,192.9,422.7,198,419.3z"/>
	<path id="XMLID_342_" class="st3" d="M163.1,409.3c2.4,2.5,5.9,5.7,10.6,8.5c6.2,3.7,12,5.4,16.1,6.3c0.7-0.6,1.5-1.2,2.3-1.9
		c1-0.8,1.9-1.5,2.8-2.2c-4.4-0.9-10-2.4-16-5.1c-5.5-2.5-10-5.3-13.4-7.8c-0.3,0.4-0.7,0.8-1.2,1.3
		C163.8,408.7,163.4,409,163.1,409.3z"/>
</g>
<g id="rosto_deets">
	<path id="XMLID_22_" class="st33" d="M344.3,22.5c-2.9,0-5.7,7.1-5.5,13.1c0.2,5.2,2.7,11.7,5.5,11.7s5.6-6.2,5.8-11.6
		C350.4,29.5,347.3,22.5,344.3,22.5z"/>
	<path id="XMLID_23_" class="st33" d="M407.9,23.5c-2.6,0-5.1,6.6-4.9,12.1c0.1,4.9,2.4,10.8,4.9,10.9c2.5,0,5-5.8,5.2-10.7
		C413.4,30,410.6,23.5,407.9,23.5z"/>
	<g id="XMLID_24_">
		<path id="XMLID_71_" class="st34" d="M384.5,50.5c0,0,0.1,0,0.3,0c0.2,0,0.5,0,0.9,0.1s0.8,0.2,1.3,0.4c0.5,0.2,1,0.5,1.6,0.9
			c0.5,0.4,1.1,0.9,1.6,1.5s1,1.3,1.3,2.1c0.4,0.8,0.6,1.7,0.7,2.6s0.1,1.8-0.1,2.8c-0.2,0.8-0.5,1.8-0.9,2.6
			c-0.4,0.8-1,1.5-1.6,2.1s-1.3,1.1-2,1.5s-1.4,0.6-2,0.8c-0.7,0.2-1.3,0.2-1.8,0.2s-1,0-1.4-0.1c-0.4,0-0.7-0.2-0.9-0.2
			c-0.2-0.1-0.3-0.1-0.3-0.1s0.1,0,0.3,0c0.2,0,0.5,0,0.8-0.1c0.4,0,0.8-0.1,1.3-0.2s1-0.3,1.5-0.5c0.5-0.3,1.1-0.6,1.6-1
			s1-0.9,1.5-1.4s0.8-1.2,1.2-1.8c0.3-0.7,0.5-1.3,0.7-2.1c0.1-0.6,0.2-1.5,0.1-2.2s-0.2-1.5-0.4-2.1c-0.3-0.7-0.5-1.3-0.9-1.9
			c-0.3-0.6-0.8-1.1-1.1-1.5c-0.4-0.4-0.8-0.8-1.2-1.1c-0.4-0.3-0.8-0.5-1.1-0.7c-0.3-0.2-0.6-0.3-0.8-0.4
			C384.6,50.5,384.5,50.5,384.5,50.5z"/>
	</g>
	<g id="XMLID_25_">
		<path id="XMLID_68_" class="st35" d="M363.8,76.2c0,0,0.4,0.4,0.9,1.2c0.3,0.4,0.7,0.8,1.1,1.4c0.4,0.5,0.9,1.1,1.4,1.7
			s1.1,1.2,1.7,1.8c0.3,0.3,0.6,0.6,1,0.9c0.3,0.3,0.7,0.6,1,0.9c0.7,0.6,1.5,1.2,2.3,1.7c0.4,0.3,0.8,0.5,1.2,0.8
			c0.4,0.3,0.8,0.5,1.3,0.7c0.9,0.5,1.8,0.8,2.6,1.1c0.4,0.1,0.9,0.2,1.3,0.4c0.5,0.1,0.9,0.1,1.3,0.2c0.4,0,0.9,0.1,1.3,0.1
			c0.5,0,0.9,0,1.3,0c0.8,0,1.6-0.2,2.4-0.3c1.5-0.3,2.8-0.8,3.7-1.1c0.9-0.4,1.4-0.6,1.4-0.6s-0.3,0.5-1,1.2s-1.7,1.7-3.3,2.6
			c-0.8,0.4-1.7,0.8-2.7,1.1c-0.5,0.2-1.1,0.3-1.6,0.3c-0.6,0.1-1.1,0.1-1.7,0.2c-0.6,0-1.2,0-1.8-0.1c-0.6-0.1-1.2-0.1-1.8-0.3
			c-1.2-0.3-2.3-0.7-3.4-1.2c-0.5-0.3-1.1-0.6-1.6-0.9s-1-0.7-1.5-1s-0.9-0.7-1.3-1.1s-0.8-0.8-1.2-1.2c-0.4-0.4-0.7-0.8-1-1.3
			c-0.3-0.4-0.6-0.8-0.9-1.3c-0.5-0.8-1-1.7-1.3-2.5s-0.6-1.5-0.8-2.2c-0.2-0.7-0.4-1.3-0.4-1.7C363.9,76.7,363.8,76.2,363.8,76.2z"
			/>
	</g>
	<path id="XMLID_28_" class="st36" d="M327.7,6.7c1.6-2.1,4.2-5,8.2-7.5c2.6-1.6,5.1-2.6,7.1-3.3c1.9-0.2,5.1-0.2,8.8,1
		c4.7,1.5,7.6,4.3,9,5.8c-3.8-1.4-9.1-2.6-15.3-2.3c-1.5,0.1-2.9,0.3-4.3,0.5C336.7,2.8,332.2,4.7,327.7,6.7z"/>
	<path id="XMLID_29_" class="st36" d="M424,4.8c-0.9-1.4-2.6-3.6-5.4-5.5c-2.1-1.4-4.1-2.1-5.5-2.5c-1.5-0.1-3.9-0.2-6.8,0.8
		c-3.6,1.2-5.9,3.3-7,4.5c2.9-1.1,7-2,11.8-1.7c1.2,0.1,2.3,0.2,3.3,0.4C417.6,2.1,420.8,3.5,424,4.8z"/>
	<g id="XMLID_30_">
		<path id="XMLID_63_" class="st33" d="M336.2,19.7c0,0,0.3,0.6,0.7,1.4c0.2,0.4,0.5,0.9,0.9,1.3c0.2,0.2,0.4,0.4,0.6,0.7
			c0.1,0.1,0.2,0.2,0.3,0.3c0.1,0.1,0.2,0.2,0.3,0.3c0.8,0.8,1.9,1.4,2.8,1.8c0.8,0.4,1.5,0.6,1.5,0.6s-0.7,0.1-1.6-0.1
			c-0.5-0.1-1.1-0.3-1.6-0.5c-0.6-0.3-1.1-0.7-1.7-1.1c-0.1-0.1-0.2-0.2-0.3-0.3c-0.1-0.1-0.2-0.3-0.3-0.4c-0.2-0.3-0.4-0.5-0.6-0.8
			c-0.3-0.5-0.5-1.1-0.7-1.6C336.1,20.3,336.2,19.7,336.2,19.7z"/>
	</g>
	<g id="XMLID_31_">
		<path id="XMLID_57_" class="st33" d="M331.3,23c0,0,0.1,0.2,0.3,0.5c0.2,0.3,0.5,0.8,0.8,1.3c0.4,0.5,0.9,1.1,1.4,1.6
			c0.3,0.3,0.6,0.5,0.9,0.7s0.7,0.5,1.1,0.6c0.3,0.2,0.7,0.3,1.1,0.5c0.4,0.1,0.8,0.2,1.2,0.3c0.8,0.2,1.5,0.2,2.1,0.2
			c1.3,0,2.2-0.1,2.2-0.1s-0.8,0.5-2.1,0.7c-0.7,0.1-1.5,0.2-2.3,0.1c-0.4-0.1-0.9-0.1-1.3-0.3c-0.4-0.1-0.9-0.3-1.3-0.5
			c-0.5-0.2-0.8-0.4-1.2-0.7c-0.4-0.3-0.7-0.6-1-0.9c-0.6-0.6-1-1.3-1.3-1.9c-0.3-0.6-0.4-1.2-0.5-1.5C331.4,23.2,331.3,23,331.3,23
			z"/>
	</g>
	<g id="XMLID_35_">
		<path id="XMLID_54_" class="st33" d="M415.3,18.7c0,0,0.1,0.7-0.2,1.6c-0.1,0.5-0.3,1-0.7,1.6c-0.2,0.3-0.3,0.6-0.6,0.8
			c-0.1,0.1-0.2,0.3-0.3,0.4c-0.1,0.1-0.2,0.2-0.3,0.3c-0.5,0.5-1.1,0.9-1.7,1.1c-0.6,0.3-1.1,0.4-1.6,0.5c-1,0.2-1.6,0.1-1.6,0.1
			s0.6-0.2,1.5-0.6c0.8-0.4,1.9-1,2.8-1.8c0.1-0.1,0.2-0.2,0.3-0.3c0.1-0.1,0.2-0.2,0.3-0.3c0.2-0.2,0.4-0.4,0.6-0.7
			c0.3-0.5,0.6-0.9,0.9-1.3C415.1,19.3,415.3,18.7,415.3,18.7z"/>
	</g>
	<g id="XMLID_32_">
		<path id="XMLID_37_" class="st33" d="M420.2,22c0,0,0,0.2-0.1,0.6c-0.1,0.4-0.2,0.9-0.5,1.5s-0.7,1.3-1.3,1.9
			c-0.3,0.3-0.6,0.6-1,0.9c-0.4,0.3-0.7,0.5-1.2,0.7c-0.4,0.2-0.9,0.4-1.3,0.5s-0.9,0.2-1.3,0.3c-0.9,0.1-1.7,0-2.3-0.1
			c-1.3-0.2-2.1-0.7-2.1-0.7s0.9,0.1,2.2,0.1c0.6,0,1.4-0.1,2.1-0.2c0.4-0.1,0.8-0.2,1.2-0.3c0.4-0.1,0.8-0.3,1.1-0.5
			c0.3-0.1,0.8-0.4,1.1-0.6c0.3-0.2,0.7-0.5,0.9-0.7c0.6-0.5,1.1-1.1,1.4-1.6c0.4-0.5,0.7-1,0.8-1.3C420.1,22.2,420.2,22,420.2,22z"
			/>
	</g>
	<g id="XMLID_39_">
		<path id="XMLID_19_" class="st37" d="M265.3,28.8c0,0-0.2,0.5-0.5,1.3s-0.7,2-1.2,3.5c-0.4,1.4-0.9,3.1-1.3,5
			c-0.2,0.9-0.3,1.9-0.5,2.8c-0.1,0.9-0.3,2-0.3,3c-0.1,1-0.1,2-0.1,3s0,1.9,0.1,2.9c0.1,0.9,0.1,1.8,0.2,2.7
			c0.1,0.9,0.2,1.7,0.3,2.4c0.2,1.5,0.5,2.7,0.7,3.6s0.3,1.4,0.3,1.4s-0.3-0.4-0.7-1.2c-0.4-0.8-0.9-2-1.4-3.5
			c-0.2-0.7-0.5-1.6-0.7-2.4c-0.2-0.9-0.4-1.8-0.5-2.8s-0.2-2-0.3-3c0-1,0-2.1,0.1-3.1c0.1-1.1,0.2-2,0.4-3.1c0.2-1,0.4-2,0.7-3
			c0.2-0.9,0.6-1.8,0.9-2.7c0.3-0.8,0.7-1.6,1-2.3c0.7-1.4,1.4-2.5,1.9-3.2C264.9,29.1,265.3,28.8,265.3,28.8z"/>
	</g>
	<g id="XMLID_40_">
		<path id="XMLID_15_" class="st37" d="M260.5,40.6c0,0,1.1,0.4,2.4,1.4c0.7,0.5,1.4,1.1,2.2,1.9c0.7,0.7,1.4,1.6,2.1,2.6
			c0.3,0.5,0.6,0.9,0.8,1.4c0.3,0.5,0.5,1,0.7,1.5c0.4,1,0.7,1.9,0.8,2.7c0.3,1.6,0.3,2.8,0.3,2.8s-0.1-0.3-0.3-0.7
			c-0.2-0.4-0.5-1.1-0.8-1.8c-0.3-0.7-0.7-1.6-1.2-2.4c-0.2-0.4-0.5-0.9-0.7-1.3c-0.3-0.4-0.5-0.9-0.8-1.3c-1.1-1.8-2.5-3.4-3.5-4.6
			C261.2,41.4,260.5,40.6,260.5,40.6z"/>
	</g>
</g>
<g id="jaleco_gola_2">
	<path id="XMLID_313_" class="st38" d="M310.9,150.8c0.1-2,0.2-4,0.3-6.2c0-2,0-4,0-5.9c-4.6,1.6-11,4.3-17.5,9.2
		c-9.6,7.2-15,15.7-17.8,20.8c-0.5,6.7-0.5,15.5,1.4,25.7c1.7,9.4,4.4,17.1,7,23c16.7-2.4,33.3-4.8,50-7.2L306.7,248l73.7,47
		l55-48.7c-8.6-11.1-17.1-22.1-25.7-33.2c7.3,0.5,14.7,1,22,1.5c-4.7-13.6-13-32.1-28-50.7c-7.5-9.2-15.1-16.6-22.1-22.4
		c-0.2,2.3-0.3,4.6-0.4,7c-0.1,2.1-0.2,4.1-0.3,6.2c1.8,1.4,3.7,2.7,5.5,4.1l8,20.3l-17.5,84.3c-0.5-0.2-26.7-48.2-26.7-48.2
		c-7.1-6.5-15.5-15.5-23.3-27.3c-5.9-8.8-10.1-17.3-13.2-24.5l-7.2-9.3C308,153,309.4,151.9,310.9,150.8z"/>
</g>
<g id="jaleco_gola_shadow">
	<path id="XMLID_42_" class="st3" d="M399.9,157.3c-1.8,0.1-4,0.5-6.6,1.3c-3.2,1.1-5.6,2.6-7.2,3.8c-0.4-0.9-0.8-1.8-1.1-2.6
		c-1.9-1.3-3.8-2.6-5.8-3.8c0.1-2.5,0.2-5,0.3-7.6c0.2-3.4,0.4-6.8,0.7-10c4.2,3.5,8.7,7.4,13.1,11.9
		C395.7,152.6,397.9,155,399.9,157.3z"/>
	<path id="XMLID_43_" class="st3" d="M312.4,151.4c-1.1,0.9-2.3,1.9-3.4,2.8c0.9,1.2,1.7,2.3,2.3,3.1c1.6,2.1,2.1,3,2.4,3.5
		c0.5,0.8,0.9,1.6,1.2,2.1c-5-0.5-11.9-0.7-19.9,0.8c-8.9,1.6-15.9,4.6-20.6,7.1c0-0.6,0-1.3,0-2.1c0-0.6,0.1-1.1,0.1-1.6
		c0.1-0.2,0.1-0.1,0.1-0.2c2.8-5.2,8.6-14,19.1-21.3c7-4.9,13.8-7.5,18.8-9c0.1,1.5,0.1,3.1,0.1,4.7c0,0.4,0,1.5,0,3.1
		C312.6,146.1,312.5,148.5,312.4,151.4z"/>
</g>
<g id="pockets">
	<path id="XMLID_304_" class="st39" d="M253,605.5c6.8,3.4,20,8.8,37.3,8.5c16.6-0.4,29.2-5.9,35.9-9.5c0.5,13.4,0.2,28.3-1.2,44.4
		c-1.3,14.1-3.3,27.1-5.7,38.9c-4.5,2.3-13.1,6-24.6,6.6c-16.2,0.8-28.1-5.1-32.5-7.6c-3.1-11.4-5.8-24.6-7.6-39.3
		C252.8,631.9,252.5,617.8,253,605.5z"/>
	<g id="XMLID_301_">
		<path id="XMLID_175_" class="st3" d="M308.5,616c0,0,0.2-0.2,0.5-0.4c0.3-0.3,0.7-0.6,1.2-1c1-0.7,2.5-1.5,4-2.1s3.1-1,4.4-1.1
			c0.6-0.1,1.2-0.1,1.6-0.1s0.6,0,0.6,0s-0.1,0.2-0.4,0.5s-0.6,0.7-1.1,1.2c-1,0.9-2.4,1.8-4,2.4c-1.6,0.6-3.2,0.9-4.6,0.9
			c-0.7,0-1.2,0-1.6-0.1C308.7,616,308.5,616,308.5,616z"/>
	</g>
	<g id="XMLID_298_">
		<path id="XMLID_173_" class="st3" d="M294.4,618.7c0,0,0.2-0.1,0.4-0.3c0.3-0.2,0.7-0.5,1.1-0.7c0.9-0.5,2.2-0.9,3.5-1.2
			c1.3-0.2,2.6-0.2,3.7-0.1c0.5,0.1,1,0.2,1.3,0.3s0.5,0.2,0.5,0.2s-0.1,0.2-0.4,0.4c-0.2,0.2-0.6,0.5-1.1,0.8
			c-0.9,0.6-2.2,1.1-3.6,1.3s-2.8,0.2-3.8-0.1c-0.5-0.1-1-0.3-1.3-0.4C294.6,618.8,294.4,618.7,294.4,618.7z"/>
	</g>
	<g id="XMLID_295_">
		<path id="XMLID_168_" class="st3" d="M282.3,619c0,0,0.1-0.1,0.4-0.3c0.2-0.2,0.6-0.4,1-0.5c0.8-0.4,1.9-0.6,2.9-0.6
			c1.1,0,2.1,0.2,2.9,0.6c0.4,0.2,0.7,0.4,1,0.5c0.2,0.2,0.4,0.3,0.4,0.3s-0.1,0.1-0.4,0.3c-0.2,0.2-0.6,0.4-1,0.6
			c-0.8,0.4-1.9,0.7-3,0.7s-2.2-0.3-3-0.7c-0.4-0.2-0.7-0.4-1-0.6C282.4,619.1,282.3,619,282.3,619z"/>
	</g>
	<g id="XMLID_292_">
		<path id="XMLID_166_" class="st3" d="M268.6,617.1c0,0,0.2-0.1,0.5-0.2c0.3-0.1,0.7-0.2,1.2-0.3c1-0.2,2.2-0.2,3.4,0
			c1.2,0.2,2.4,0.6,3.2,1.1c0.4,0.2,0.8,0.5,1,0.7s0.4,0.3,0.4,0.3s-0.2,0.1-0.5,0.3c-0.3,0.1-0.7,0.3-1.2,0.4
			c-1,0.3-2.3,0.3-3.5,0.1s-2.4-0.7-3.3-1.3c-0.4-0.3-0.8-0.6-1-0.8C268.8,617.3,268.6,617.1,268.6,617.1z"/>
	</g>
	<g id="XMLID_289_">
		<path id="XMLID_164_" class="st3" d="M258.1,613.9c0,0,0.2-0.1,0.4-0.2c0.3-0.1,0.6-0.2,1-0.2c0.8-0.1,1.8,0,2.8,0.3
			c0.9,0.3,1.8,0.8,2.4,1.4c0.3,0.3,0.6,0.6,0.7,0.8c0.2,0.2,0.3,0.4,0.3,0.4s-0.2,0.1-0.4,0.2c-0.3,0.1-0.6,0.2-1,0.3
			c-0.8,0.2-1.9,0.1-2.9-0.2s-1.9-0.9-2.5-1.5c-0.3-0.3-0.5-0.6-0.7-0.9C258.2,614.1,258.1,613.9,258.1,613.9z"/>
	</g>
	<g id="XMLID_285_">
		<path id="XMLID_51_" class="st3" d="M306.9,686.7c0,0,0.1-0.2,0.3-0.4c0.2-0.2,0.4-0.5,0.7-0.8c0.6-0.6,1.5-1.1,2.5-1.4
			c1-0.3,2-0.4,2.8-0.3c0.4,0,0.8,0.1,1.1,0.2c0.3,0.1,0.4,0.1,0.4,0.1s-0.1,0.2-0.2,0.4s-0.4,0.6-0.7,0.9c-0.6,0.6-1.5,1.2-2.5,1.6
			c-1,0.3-2.1,0.4-3,0.2c-0.4-0.1-0.8-0.2-1.1-0.3C307.1,686.8,306.9,686.7,306.9,686.7z"/>
	</g>
	<g id="XMLID_277_">
		<path id="XMLID_49_" class="st3" d="M294,688.6c0,0,0.1-0.1,0.4-0.3s0.6-0.4,1.1-0.6c0.9-0.4,2.1-0.8,3.3-1
			c1.2-0.2,2.4-0.1,3.4,0.1c0.5,0.1,0.9,0.2,1.2,0.4c0.3,0.1,0.5,0.2,0.5,0.2s-0.1,0.2-0.4,0.4c-0.2,0.2-0.6,0.5-1,0.8
			c-0.9,0.5-2.1,1-3.3,1.2c-1.3,0.2-2.6,0-3.5-0.3c-0.5-0.2-0.9-0.3-1.2-0.5C294.2,688.7,294,688.6,294,688.6z"/>
	</g>
	<g id="XMLID_44_">
		<path id="XMLID_45_" class="st3" d="M278.3,687.5c0,0,0.2-0.1,0.6-0.2c0.4-0.1,0.9-0.2,1.5-0.3c1.2-0.2,2.8-0.2,4.4-0.1
			c1.6,0.1,3.1,0.5,4.3,0.9c0.6,0.2,1.1,0.4,1.4,0.6c0.3,0.2,0.5,0.3,0.5,0.3s-0.2,0.1-0.6,0.3s-0.9,0.4-1.5,0.5
			c-1.2,0.4-2.9,0.5-4.5,0.4c-1.6-0.2-3.2-0.6-4.4-1.2c-0.6-0.3-1-0.6-1.3-0.8C278.5,687.6,278.3,687.5,278.3,687.5z"/>
	</g>
	<g id="XMLID_2_">
		<path id="XMLID_13_" class="st3" d="M266.3,683.8c0,0,0.2-0.1,0.5-0.1c0.3-0.1,0.7-0.1,1.2-0.1c0.9,0,2.1,0.1,3.1,0.5
			c1.1,0.4,2.1,0.9,2.8,1.5c0.4,0.3,0.7,0.6,0.9,0.8c0.2,0.2,0.3,0.4,0.3,0.4s-0.2,0.1-0.5,0.2c-0.3,0.1-0.7,0.2-1.2,0.3
			c-0.9,0.1-2.2,0-3.3-0.3c-1.1-0.4-2.2-1-2.8-1.7c-0.3-0.3-0.6-0.7-0.8-0.9C266.4,684,266.3,683.8,266.3,683.8z"/>
	</g>
</g>
</svg>
